<?xml version="1.0" encoding="UTF-8"?>
<svg id="Layer_1" xmlns="http://www.w3.org/2000/svg" version="1.1" viewBox="0 0 1496.5 259.8">
  <!-- Generator: Adobe Illustrator 29.4.0, SVG Export Plug-In . SVG Version: 2.1.0 Build 152)  -->
  <defs>
    <style>
      .st0 {
        fill: #b99c20;
      }

      .st1 {
        fill: #fff;
      }
    </style>
  </defs>
  <g id="c">
    <path class="st1" d="M982.4,177.6v13.9c0,.7,10,7.8,11.5,8.7h68.2l1.1-.2,18.8-15.1h.6c0-.1,42.2,19.8,42.2,19.8l-35.6,28.4c-3.3,2.5-7,3.9-11.2,4.3h-99.8c-4.8-.4-8.4-2.5-12.2-5.2-7-5.1-17.6-13.2-23.8-19-4.1-3.9-5.3-8-5.7-13.6,1.3-24.9-1.6-51.5,0-76.2.3-3.9,1.1-7.9,3.6-11,8.8-7.1,18.2-16.6,27.5-22.8,3.3-2.2,6.7-3.4,10.6-4h100.1c4.4.6,8,2.4,11.5,4.9,6.9,4.9,16.9,13,23.1,18.8,3.9,3.6,6.1,6.7,6.6,12.2.6,7.1.6,20.6,0,27.8-.6,7.2-1.3,5.9-3.1,8.2s-17.5,14.7-21.2,16.9-9.3,2.8-14.5,3.4h-98.6l.3-.2ZM982.4,141.8h91l.7-.7v-9.4c-4.2-2.7-8.8-8.8-13.9-9.2h-64.9c-2.1,0-13,8.4-13,9.2v10.1h.1Z"/>
    <path class="st1" d="M821.5,85.3v9.4c8.1-2.1,16-5.9,24.1-8.1s4.2-1.3,4.8-1.3h64.2v50.6l-27.8,22.1c-.7.3-3.7.4-4.4.3-2.2-.5-8.2-34.5-9.7-35.6s-15,.3-17.7-.2c-11.3,1.4-22.4,4.4-33.6,6.7v73.3l41.8,6.8-15,28h-103v-28.7l30.6-6.4v-81.3l-33.4-7.6c5.2-8.3,10.4-16.5,15.7-24.7.4-.6,1.5-3.3,1.7-3.3h61.7Z"/>
    <path class="st1" d="M1326,167.3l-15.9-13h0c-3.7-3.1-7.6-4.6-12.9-5.3l-91.8-11.3h-.2c-2-.2-2.7-.5-3.7-1.3l-5.2-4.4c-.3-.3-.5-.5-.6-.6v-2c0,0,.3-.3.7-.6l8.7-7.3c.8-.6,1.5-1,3.9-1h61.1c1.9,0,2.7.3,3.5,1l9,7.2c.2.2.3.3.3.3v17l41-10.7h5.1v-13.4c0-6.8-3.6-10.9-6.7-13.7l-23.4-18.7c-4.4-3.5-8.9-5-14.9-5h-89.3c-5.8,0-10.3,1.5-15,4.9l-23,18.1-.3.2h0c-4.9,4-7,8.2-7,13.9v18.8c0,5.4,2,9.5,6.3,13l.3.3,15.8,12.9.3.2c3.6,2.5,6.9,4.3,12.5,5.1h.4l91.6,11.6h.5c2.3.2,2.5.4,3.2,1l5.5,4.5c.3.3.5.5.5.6v1.9c0,.5,0,.8-.5,1.3l-8.6,6.6h-.2c0,.1,0,.3,0,.3-1.2.9-2,1.2-3.4,1.2h-64.3c-1.7,0-2.2-.3-3.5-1.3l-9.1-7c0-.1-.2-.2-.2-.2v-17.3l-46.1,12.4v11.7c0,5.7,2.1,9.9,6.6,13.6h0l23.7,18.7c4.3,3.4,8.8,5,14.7,5h92c4.5,0,9.8-.6,14.9-5.1l23.3-17.8.3-.3c4.7-4.2,6.7-8.3,6.7-13.9v-19.1c0-5.4-2.1-9.6-6.5-13.2v.2Z"/>
    <path class="st1" d="M718.8,108l-22.8-18.5-.3-.2c-4.7-3.4-9.2-4.9-15-4.9h-93.3c-5.9,0-10.5,1.6-14.9,5l-23.1,18.5c-4.6,3.7-6.9,8.3-6.9,13.8v77.8c0,6.7,3.5,10.8,6.5,13.5l.7.6h.2l22.5,17.8c5.1,4.5,10.5,5.1,15,5.1h93.3c6.3,0,10.8-1.5,15.2-5l22.8-18.2.2-.2c3.1-2.8,6.7-6.8,6.7-13.7v-77.8c0-5.6-2.3-10.1-6.9-13.8v.2ZM679.9,131.3v58.7q0,.6-.6,1.2l-9,6.9-.5.4c-.4.4-1,1-3.1,1h-65.1c-1.7,0-2.2-.3-3.5-1.3h0l-8.8-6.8c-.9-.9-.9-1.2-.9-1.3v-59.1s.1-.3.9-1l8.6-6.9c1.4-.9,2.1-1.2,3.8-1.2h65.1c2,0,2.9.5,3.5,1l9,7.2h.1c.4.4.5.6.6.7v.6h-.1Z"/>
    <path class="st1" d="M1432.6,198.8l-8.8-7.1c-.7-.7-.9-1-.9-1v-70.4l50.4,1.1,23.2-37.2-73.6,1.5v-51.7l-41.7,13.5-4.1,1.4v37.8l-17.3.7h-3.3c0,0-1.5,2.8-1.5,2.8l-18.5,28.4,40.6.7v80.7c0,5.8,2.1,10,6.9,13.9l22.6,17.8c5.1,4.5,10.5,5.1,15,5.1h49.5l24.4-36.9h-59.4c-2.2,0-2.6-.3-3.6-1h.1Z"/>
    <polygon class="st1" points="307.1 64.8 343.5 72.5 343.5 199.4 315.3 205.4 310.6 206.4 310.6 236.8 421.2 236.8 440.3 206.8 431.5 205.3 391.4 199.1 391.4 153 473.8 155.5 499.2 116.2 391.4 118.9 391.4 74.2 487.1 74.2 495.9 103.1 497 107.4 532.4 107.4 532.4 34.9 325.6 34.9 307.1 64.8"/>
  </g>
  <g>
    <g>
      <path class="st0" d="M130.4,146.3L2.9,178.2c-1,.2-1.5,1.4-.9,2.3l18.3,30c.3.5.8.7,1.3.7h218.4c.5,0,1-.3,1.3-.7l18.3-30c.5-.9,0-2-.9-2.3l-127.5-31.9h-.8Z"/>
      <path class="st0" d="M203.9,51.6L131.7.6c-.5-.4-1.2-.4-1.8,0L57.6,51.6c-.7.5-.9,1.5-.3,2.2l4,5.3c.3.4.7.6,1.2.6h136.5c.5,0,.9-.2,1.2-.6l4-5.3c.5-.7.4-1.7-.3-2.2Z"/>
      <path class="st0" d="M130.6,68.5L21.4,119.7c-.8.4-1.1,1.4-.6,2.2l9.4,14.8c.3.4.8.7,1.3.7h198.6c.5,0,1-.3,1.3-.7l9.4-14.9c.5-.8.2-1.8-.6-2.2l-108.3-51.3c-.4-.2-.9-.2-1.3,0h-.1Z"/>
    </g>
    <path class="st0" d="M194,258.4l8.4-13.1c.7-1,.7-2.4,0-3.4l-8.4-13.1c-.6-.9-1.6-1.4-2.6-1.4h-121c-1.1,0-2,.5-2.6,1.4l-8.4,13.1c-.7,1-.7,2.4,0,3.4l8.4,13.1c.6.9,1.6,1.4,2.6,1.4h121c1.1,0,2-.5,2.6-1.4h0Z"/>
  </g>
</svg>
