<svg width="117" height="118" viewBox="0 0 117 118" fill="none" xmlns="http://www.w3.org/2000/svg">
<path d="M115.747 80.7578L58.6814 66.469H58.0374L0.971993 80.7578C0.143274 80.9426 -0.226218 81.8663 0.143274 82.6L6.41409 95.1363C6.59883 95.5956 7.05806 95.8753 7.6123 95.8753H109.202C109.661 95.8753 110.125 95.6008 110.4 95.1363L116.671 82.6C117.04 81.861 116.671 80.9426 115.842 80.7578H115.752H115.747ZM80.8985 103.619C80.624 103.344 80.3442 103.249 79.9747 103.249H36.8286C36.4591 103.249 36.1846 103.339 35.9049 103.619L29.8188 109.705C29.2645 110.259 29.2645 111.088 29.8188 111.547L35.9946 117.633C36.2691 117.908 36.5488 118.003 36.9183 118.003H79.9695C80.3389 118.003 80.6134 117.913 80.8932 117.633L86.9792 111.547C87.5335 110.993 87.5335 110.164 86.9792 109.705L80.8932 103.619H80.8985ZM25.2212 25.9991H91.5029C92.7011 25.9991 93.2553 24.6161 92.3316 23.8771L59.1459 0.277119C58.6867 -0.0923731 57.9477 -0.0923731 57.4885 0.277119L24.3925 23.9669C23.4688 24.6108 23.9333 26.0888 25.2212 26.0888V25.9991ZM13.6931 61.9507C13.9676 62.1354 14.2473 62.3201 14.6168 62.3201H102.012C102.382 62.3201 102.656 62.2304 102.936 61.9507L108.742 56.7883C109.386 56.2341 109.202 55.3156 108.468 54.9461L58.9612 29.6887C58.5917 29.504 58.0374 29.504 57.6679 29.6887L8.25627 54.9461C7.51728 55.3156 7.33254 56.2394 7.98179 56.7883L13.7881 61.9507H13.6984H13.6931Z" fill="#B99C20"/>
</svg>
