<?xml version="1.0" encoding="UTF-8"?>
<svg id="b" xmlns="http://www.w3.org/2000/svg" version="1.1" viewBox="0 0 128 128">
  <!-- Generator: Adobe Illustrator 29.3.1, SVG Export Plug-In . SVG Version: 2.1.0 Build 151)  -->
  <defs>
    <style>
      .st0 {
        fill: #b99c20;
      }
    </style>
  </defs>
  <g>
    <path class="st0" d="M63.8,72L1,87.7c-.5.1-.7.7-.5,1.1l9,14.8c.1.2.4.4.7.4h107.6c.3,0,.5-.1.7-.4l9-14.8c.3-.4,0-1-.5-1.1l-62.8-15.7c-.1,0-.2,0-.4,0Z"/>
    <path class="st0" d="M100,25.3L64.4.2c-.3-.2-.6-.2-.9,0L28,25.3c-.4.2-.4.7-.2,1.1l2,2.6c.1.2.4.3.6.3h33.6s33.6,0,33.6,0c.2,0,.5-.1.6-.3l2-2.6c.3-.3.2-.8-.2-1.1Z"/>
    <path class="st0" d="M63.9,33.7L10.1,58.9c-.4.2-.6.7-.3,1.1l4.6,7.3c.1.2.4.4.6.4h97.8c.3,0,.5-.1.6-.4l4.7-7.3c.2-.4,0-.9-.3-1.1l-53.3-25.3c-.2,0-.4,0-.7,0Z"/>
  </g>
  <path class="st0" d="M95.3,127.2l4.1-6.4c.3-.5.3-1.2,0-1.7l-4.1-6.4c-.3-.4-.8-.7-1.3-.7h-59.6c-.5,0-1,.3-1.3.7l-4.1,6.4c-.3.5-.3,1.2,0,1.7l4.1,6.4c.3.4.8.7,1.3.7h59.6c.5,0,1-.3,1.3-.7Z"/>
</svg>
