<svg width="640" height="640" viewBox="0 0 640 640" fill="none" xmlns="http://www.w3.org/2000/svg">
<g clip-path="url(#clip0_306_1863)">
<path d="M77.2678 336.041L76.1822 335.076L44.7315 307.119L44.7234 307.112L44.7151 307.105C43.2864 305.881 42.8172 304.305 43.0597 302.85C43.3053 301.376 44.2982 299.945 45.9678 299.111L45.9774 299.106L313.549 162.325C313.551 162.324 313.552 162.323 313.554 162.322C314.351 161.925 315.404 161.703 316.505 161.703C317.607 161.703 318.661 161.925 319.458 162.323C319.459 162.323 319.461 162.324 319.462 162.325L587.534 299.106L587.542 299.111C589.212 299.945 590.205 301.376 590.451 302.85C590.693 304.305 590.224 305.881 588.795 307.105L588.787 307.112L588.779 307.119L557.328 335.076L557.302 335.099L557.277 335.124C556.627 335.774 556.016 336.17 555.387 336.412C554.751 336.656 554.033 336.769 553.135 336.769H316.505H79.8758C78.9219 336.769 78.104 336.488 77.2678 336.041ZM137.286 140.076H136.083V140.479C133.783 140.095 132.282 138.623 131.679 136.942C130.971 134.968 131.474 132.689 133.483 131.283L133.493 131.275L312.713 2.97604L312.739 2.95732L312.764 2.93723C314.821 1.29191 318.19 1.29191 320.247 2.93723L320.273 2.95851L320.301 2.97824L499.991 130.758C502.034 132.408 502.405 134.7 501.657 136.595C500.9 138.512 498.969 140.076 496.224 140.076H137.286ZM163.091 603.698L163.056 603.662L163.017 603.63C160.647 601.655 160.525 597.994 163.098 595.421L196.046 562.473C196.696 561.823 197.306 561.427 197.936 561.185C198.571 560.94 199.29 560.828 200.188 560.828H433.822C434.72 560.828 435.438 560.94 436.073 561.185C436.703 561.427 437.314 561.823 437.963 562.473L470.912 595.421L470.95 595.46L470.992 595.495C473.363 597.47 473.485 601.131 470.912 603.704L437.963 636.652C437.314 637.302 436.703 637.698 436.073 637.94C435.438 638.185 434.72 638.297 433.822 638.297H200.687C199.789 638.297 199.071 638.185 198.435 637.94C197.805 637.698 197.195 637.302 196.545 636.652L196.539 636.646L163.091 603.698ZM627.227 438.983L627.37 439.019H627.519H627.88C631.436 439.891 633.104 443.923 631.435 447.262L597.509 515.113C596.195 517.277 594.076 518.484 592.074 518.484H317.005H41.9352C39.3385 518.484 37.3459 517.205 36.5625 515.247L36.5439 515.2L36.5216 515.156L2.57468 447.262C0.886134 443.885 2.6123 439.799 6.25246 438.99L6.26814 438.987L6.28371 438.983L315.156 361.64H315.158H315.164H315.17H315.176H315.182H315.188H315.194H315.201H315.207H315.213H315.219H315.226H315.232H315.238H315.244H315.251H315.257H315.263H315.269H315.276H315.282H315.288H315.295H315.301H315.307H315.314H315.32H315.326H315.333H315.339H315.346H315.352H315.358H315.365H315.371H315.378H315.384H315.391H315.397H315.404H315.41H315.417H315.423H315.43H315.436H315.443H315.449H315.456H315.462H315.469H315.476H315.482H315.489H315.495H315.502H315.509H315.515H315.522H315.529H315.535H315.542H315.548H315.555H315.562H315.569H315.575H315.582H315.589H315.595H315.602H315.609H315.616H315.622H315.629H315.636H315.643H315.649H315.656H315.663H315.67H315.676H315.683H315.69H315.697H315.704H315.711H315.717H315.724H315.731H315.738H315.745H315.752H315.759H315.766H315.772H315.779H315.786H315.793H315.8H315.807H315.814H315.821H315.828H315.835H315.842H315.849H315.856H315.863H315.869H315.876H315.883H315.89H315.897H315.904H315.911H315.918H315.925H315.932H315.94H315.947H315.954H315.961H315.968H315.975H315.982H315.989H315.996H316.003H316.01H316.017H316.024H316.031H316.038H316.045H316.053H316.06H316.067H316.074H316.081H316.088H316.095H316.102H316.11H316.117H316.124H316.131H316.138H316.145H316.152H316.16H316.167H316.174H316.181H316.188H316.195H316.203H316.21H316.217H316.224H316.231H316.239H316.246H316.253H316.26H316.267H316.275H316.282H316.289H316.296H316.303H316.311H316.318H316.325H316.332H316.34H316.347H316.354H316.361H316.369H316.376H316.383H316.39H316.398H316.405H316.412H316.419H316.427H316.434H316.441H316.449H316.456H316.463H316.47H316.478H316.485H316.492H316.499H316.507H316.514H316.521H316.529H316.536H316.543H316.551H316.558H316.565H316.572H316.58H316.587H316.594H316.602H316.609H316.616H316.624H316.631H316.638H316.645H316.653H316.66H316.667H316.675H316.682H316.689H316.697H316.704H316.711H316.719H316.726H316.733H316.74H316.748H316.755H316.762H316.77H316.777H316.784H316.792H316.799H316.806H316.814H316.821H316.828H316.836H316.843H316.85H316.857H316.865H316.872H316.879H316.887H316.894H316.901H316.909H316.916H316.923H316.931H316.938H316.945H316.952H316.96H316.967H316.974H316.982H316.989H316.996H317.003H317.011H317.018H317.025H317.033H317.04H317.047H317.054H317.062H317.069H317.076H317.084H317.091H317.098H317.105H317.113H317.12H317.127H317.134H317.142H317.149H317.156H317.163H317.171H317.178H317.185H317.192H317.199H317.207H317.214H317.221H317.228H317.236H317.243H317.25H317.257H317.264H317.272H317.279H317.286H317.293H317.3H317.308H317.315H317.322H317.329H317.336H317.344H317.351H317.358H317.365H317.372H317.379H317.386H317.394H317.401H317.408H317.415H317.422H317.429H317.436H317.443H317.451H317.458H317.465H317.472H317.479H317.486H317.493H317.5H317.507H317.514H317.521H317.528H317.536H317.543H317.55H317.557H317.564H317.571H317.578H317.585H317.592H317.599H317.606H317.613H317.62H317.627H317.634H317.641H317.648H317.655H317.662H317.669H317.676H317.682H317.689H317.696H317.703H317.71H317.717H317.724H317.731H317.738H317.745H317.752H317.758H317.765H317.772H317.779H317.786H317.793H317.8H317.806H317.813H317.82H317.827H317.834H317.841H317.847H317.854H317.861H317.868H317.874H317.881H317.888H317.895H317.901H317.908H317.915H317.922H317.928H317.935H317.942H317.948H317.955H317.962H317.968H317.975H317.982H317.988H317.995H318.002H318.008H318.015H318.021H318.028H318.035H318.041H318.048H318.054H318.061H318.067H318.074H318.08H318.087H318.094H318.1H318.107H318.113H318.119H318.126H318.132H318.139H318.145H318.152H318.158H318.165H318.171H318.177H318.184H318.19H318.197H318.203H318.209H318.216H318.222H318.228H318.235H318.241H318.247H318.253H318.26H318.266H318.272H318.278H318.285H318.291H318.297H318.303H318.31H318.316H318.322H318.328H318.334H318.34H318.347H318.353H318.354L627.227 438.983Z" stroke="#B99C20" stroke-width="2.40648"/>
</g>
<defs>
<clipPath id="clip0_306_1863">
<rect width="632.51" height="639" fill="white" transform="translate(0.5 0.5)"/>
</clipPath>
</defs>
</svg>
