<svg width="300" height="50" viewBox="0 0 300 50" fill="none" xmlns="http://www.w3.org/2000/svg">
<path d="M0.5 1.5H25.5V8.5H9.5V21.5H22.5V28.5H9.5V48.5H0.5V1.5Z" fill="#B99C20"/>
<path d="M29.5 1.5H54.5C61.5 1.5 66.5 6.5 66.5 13.5C66.5 18.5 64 22.5 59.5 24L67.5 48.5H57.5L50.5 26.5H38.5V48.5H29.5V1.5ZM53.5 19.5C56.5 19.5 58 17 58 14C58 11 56.5 8.5 53.5 8.5H38.5V19.5H53.5Z" fill="#B99C20"/>
<path d="M71.5 1.5H96.5C103.5 1.5 108.5 6.5 108.5 13.5C108.5 18.5 106 22.5 101.5 24L109.5 48.5H99.5L92.5 26.5H80.5V48.5H71.5V1.5ZM95.5 19.5C98.5 19.5 100 17 100 14C100 11 98.5 8.5 95.5 8.5H80.5V19.5H95.5Z" fill="#B99C20"/>
<path d="M112.5 1.5H137.5V8.5H121.5V21.5H134.5V28.5H121.5V41.5H137.5V48.5H112.5V1.5Z" fill="#B99C20"/>
<path d="M142.5 1.5H151.5L166.5 32.5V1.5H175.5V48.5H166.5L151.5 17.5V48.5H142.5V1.5Z" fill="#B99C20"/>
<path d="M181.5 1.5H190.5V41.5H206.5V48.5H181.5V1.5Z" fill="#B99C20"/>
<path d="M210.5 1.5H219.5V48.5H210.5V1.5Z" fill="#B99C20"/>
<path d="M225.5 1.5H234.5V41.5H250.5V48.5H225.5V1.5Z" fill="#B99C20"/>
<path d="M254.5 1.5H279.5C286.5 1.5 291.5 6.5 291.5 13.5C291.5 18.5 289 22.5 284.5 24L292.5 48.5H282.5L275.5 26.5H263.5V48.5H254.5V1.5ZM278.5 19.5C281.5 19.5 283 17 283 14C283 11 281.5 8.5 278.5 8.5H263.5V19.5H278.5Z" fill="#B99C20"/>
</svg>
