<?xml version="1.0" encoding="UTF-8"?><svg id="b" xmlns="http://www.w3.org/2000/svg" viewBox="0 0 1189.4 203.4"><g id="c"><path d="M675.3,143.6v13.9c0,.7,10,7.8,11.5,8.7h68.2s1.1-.2,1.1-.2l18.8-15.1h.6c0-.1,42.2,19.8,42.2,19.8l-35.6,28.4c-3.3,2.5-7,3.9-11.2,4.3h-99.8c-4.8-.4-8.4-2.5-12.2-5.2-7-5.1-17.6-13.2-23.8-19-4.1-3.9-5.3-8-5.7-13.6,1.3-24.9-1.6-51.5,0-76.2.3-3.9,1.1-7.9,3.6-11,8.8-7.1,18.2-16.6,27.5-22.8,3.3-2.2,6.7-3.4,10.6-4h100.1c4.4.6,8,2.4,11.5,4.9,6.9,4.9,16.9,13,23.1,18.8,3.9,3.6,6.1,6.7,6.6,12.2.6,7.1.6,20.6,0,27.8s-1.3,5.9-3.1,8.2-17.5,14.7-21.2,16.9-9.3,2.8-14.5,3.4h-98.6ZM675.3,107.9h91s.7-.7.7-.7v-9.4c-4.2-2.7-8.8-8.8-13.9-9.2h-64.9c-2.1-.1-13,8.4-13,9.2v10.1Z"/><path d="M514.4,51.4v9.4c8.1-2.1,16-5.9,24.1-8.1s4.2-1.3,4.8-1.3h64.2v50.6l-27.8,22.1c-.7.3-3.7.4-4.4.3-2.2-.5-8.2-34.5-9.7-35.6s-15,.3-17.7-.2c-11.3,1.4-22.4,4.4-33.6,6.7v73.3c0,0,41.8,6.8,41.8,6.8l-15,28h-103v-28.7l30.6-6.4v-81.3c0,0-33.4-7.6-33.4-7.6,5.2-8.3,10.4-16.5,15.7-24.7.4-.6,1.5-3.3,1.7-3.3h61.6Z"/><path d="M1018.9,133.4l-15.9-13h-.1c-3.7-3.1-7.6-4.6-12.9-5.3l-91.8-11.3h-.2c-2-.2-2.7-.5-3.7-1.3l-5.2-4.4c-.3-.3-.5-.5-.6-.6,0,0,0-.1,0-.2v-1.5c0-.1,0-.2,0-.3,0-.1.3-.3.7-.6l8.7-7.3c.8-.6,1.5-1,3.9-1h61.1c1.9,0,2.7.3,3.5,1l9,7.2c.2.2.3.3.3.3,0,0,0,.2,0,.7v16.3l41-10.7h5.1v-13.4c0-6.8-3.6-10.9-6.7-13.7l-23.4-18.7c-4.4-3.5-8.9-5-14.9-5h-89.3c-5.8,0-10.3,1.5-15,4.9l-23,18.1-.3.2h0c-4.9,4-7,8.2-7,13.9v18.8c0,5.4,2,9.5,6.3,13l.3.3,15.8,12.9.3.2c3.6,2.5,6.9,4.3,12.5,5.1h.4c0,0,91.6,11.6,91.6,11.6h.4c0,0,.1,0,.1,0,2.3.2,2.5.4,3.2,1l5.5,4.5c.3.3.5.5.5.6,0,0,0,.1,0,.2v1.7c0,.5,0,.8-.5,1.3l-8.6,6.6h-.2c0,.1-.1.3-.1.3-1.2.9-2,1.2-3.4,1.2h-64.3c-1.7,0-2.2-.3-3.5-1.3l-9.1-7c-.1-.1-.2-.2-.2-.2,0-.1,0-.4,0-.9v-16.4l-46.1,12.4v11.7c0,5.7,2.1,9.9,6.6,13.6h0c0,0,23.7,18.7,23.7,18.7,4.3,3.4,8.8,5,14.7,5h92c4.5,0,9.8-.6,14.9-5.1l23.3-17.8.3-.3c4.7-4.2,6.7-8.3,6.7-13.9v-19.1c0-5.4-2.1-9.6-6.5-13.2Z"/><path d="M411.7,74.1l-22.8-18.5-.3-.2c-4.7-3.4-9.2-4.9-15-4.9h-93.3c-5.9,0-10.5,1.6-14.9,5l-23.1,18.5c-4.6,3.7-6.9,8.3-6.9,13.8v77.8c0,6.7,3.5,10.8,6.5,13.5l.7.6h.2c0,0,22.5,17.8,22.5,17.8,5.1,4.5,10.5,5.1,15,5.1h93.3c6.3,0,10.8-1.5,15.2-5l22.8-18.2.2-.2c3.1-2.8,6.7-6.8,6.7-13.7v-77.8c0-5.6-2.3-10.1-6.9-13.8ZM372.8,97.4v58.7c0,.6,0,.6-.6,1.2l-9,6.9-.5.4c-.4.4-1,1-3.1,1h-65.1c-1.7,0-2.2-.3-3.5-1.3h0s-8.8-6.8-8.8-6.8c-.9-.9-.9-1.2-.9-1.3v-58.7c0-.3,0-.4,0-.4,0,0,.1-.3.9-1l8.6-6.9c1.4-.9,2.1-1.2,3.8-1.2h65.1c2,0,2.9.5,3.5,1l9,7.2h.1c.4.4.5.6.6.7,0,0,0,.3,0,.6Z"/><path d="M1125.5,164.8l-8.8-7.1c-.7-.7-.9-1-.9-1,0,0,0,0,0-.4v-70l50.4,1.1,23.2-37.2-73.6,1.5V0l-41.7,13.5-4.1,1.4v37.8l-17.3.7h-3.3c0,.1-1.5,2.8-1.5,2.8l-18.5,28.4,40.6.7v80.7c0,5.8,2.1,10,6.9,13.9l22.6,17.8c5.1,4.5,10.5,5.1,15,5.1h49.5l24.4-36.9h-59.4c-2.2,0-2.6-.3-3.6-1Z"/><polygon points="0 30.9 36.4 38.6 36.4 165.5 8.2 171.5 3.5 172.5 3.5 202.8 114.1 202.8 133.2 172.9 124.4 171.4 84.3 165.2 84.3 119.1 166.7 121.6 192.1 82.3 84.3 85 84.3 40.3 180 40.3 188.8 69.2 189.9 73.5 225.3 73.5 225.3 1 18.5 1 0 30.9"/></g></svg>
