<?xml version="1.0" encoding="UTF-8"?>
<svg id="b" xmlns="http://www.w3.org/2000/svg" version="1.1" viewBox="0 0 512 512">
  <!-- Generator: Adobe Illustrator 29.3.1, SVG Export Plug-In . SVG Version: 2.1.0 Build 151)  -->
  <defs>
    <style>
      .st0 {
        fill: #b99c20;
      }
    </style>
  </defs>
  <path class="st0" d="M509.9,351.5c-.5-1.3-1.6-2.2-2.9-2.5l-250-62.5c-.7-.2-1.4-.2-2.1,0L5,349c-1.3.3-2.4,1.3-2.9,2.5s-.4,2.7.3,3.9l35.9,58.7c.8,1.3,2.2,2,3.7,2h428.2c1.5,0,2.9-.8,3.7-2l35.9-58.7c.7-1.2.8-2.6.3-3.9ZM507.5,354.1l-35.9,58.7c-.3.5-.9.9-1.5.9H41.9c-.6,0-1.2-.3-1.5-.9l-35.9-58.7c-.3-.5-.3-1.1-.1-1.6.2-.5.7-.9,1.2-1.1l250-62.5h0c.1,0,.3,0,.4,0s.3,0,.4,0l250,62.5c.6.1,1,.5,1.2,1.1.2.5.2,1.1-.1,1.6Z"/>
  <path class="st0" d="M118.8,117.5c.8,1.1,2.1,1.7,3.4,1.7h267.6c1.3,0,2.6-.6,3.4-1.7l7.8-10.4c.7-.9,1-2.1.8-3.2-.2-1.2-.8-2.2-1.8-2.8L258.5,1.2c-1.5-1-3.5-1-4.9,0L111.9,101c-1,.7-1.6,1.7-1.8,2.8-.2,1.2.1,2.3.8,3.2l7.8,10.4ZM112.6,104.2c0-.5.3-.9.7-1.2L255,3.2c.3-.2.7-.3,1-.3s.7.1,1,.3l141.6,99.9c.4.3.7.7.7,1.2,0,.5,0,1-.3,1.4l-7.8,10.4c-.3.4-.9.7-1.4.7H122.2c-.6,0-1.1-.3-1.4-.7l-7.8-10.4c-.3-.4-.4-.9-.3-1.4Z"/>
  <path class="st0" d="M57.7,270c.8,1.2,2.1,2,3.6,2h389.4c1.5,0,2.8-.7,3.6-2l18.5-29.1c.7-1,.8-2.3.5-3.5s-1.2-2.2-2.3-2.7l-212.3-100.6c-1.2-.5-2.5-.6-3.6,0L41,234.7c-1.1.5-1.9,1.5-2.3,2.7-.3,1.2-.2,2.5.5,3.5l18.5,29.1ZM41.1,238.1c.1-.5.5-.9,1-1.1l214.1-100.6h0c.5-.2,1-.2,1.5,0l212.3,100.6c.5.2.8.6,1,1.1.1.5,0,1-.2,1.5l-18.5,29.1c-.3.5-.9.8-1.5.8H61.3c-.6,0-1.2-.3-1.5-.8l-18.5-29.1c-.3-.4-.4-1-.2-1.5Z"/>
  <path class="st0" d="M381.8,449c-1.4-2.1-3.7-3.4-6.3-3.4h-237.2c-2.5,0-4.9,1.3-6.3,3.4l-16.5,25.6c-1.6,2.5-1.6,5.6,0,8.1l16.5,25.6c1.4,2.1,3.7,3.4,6.3,3.4h237.2c2.5,0,4.9-1.3,6.3-3.4l16.5-25.6c1.6-2.5,1.6-5.6,0-8.1l-16.5-25.6ZM396.1,481.3l-16.5,25.6c-.9,1.4-2.5,2.3-4.2,2.3h-237.2c-1.7,0-3.2-.8-4.2-2.3l-16.5-25.6c-1.1-1.6-1.1-3.7,0-5.4l16.5-25.6c.9-1.4,2.5-2.3,4.2-2.3h237.2c1.7,0,3.2.8,4.2,2.3l16.5,25.6c1.1,1.6,1.1,3.7,0,5.4Z"/>
</svg>
