<?xml version="1.0" encoding="UTF-8"?><svg id="b" xmlns="http://www.w3.org/2000/svg" xmlns:xlink="http://www.w3.org/1999/xlink" viewBox="0 0 352 262.8"><defs><style>.e{fill:none;}.f{fill:#b99c20;}.g{clip-path:url(#d);}</style><clipPath id="d"><rect class="e" width="352" height="262.8"/></clipPath></defs><g id="c"><g class="g"><path class="f" d="M229.4,0l10.1,3c28.3,13.5,12.9,46.4,16.5,70,18.6,2.7,37.3,4.8,55.8,7.8,22.4,3.7,43.1,8,64.9,15.5,24.4,8.4,47.9,19.2,71.4,29.4v1.2l-10.9,30.8-54.4-14.9c-6.2-1.4-12.9-2.3-18.9-4-22-1.9-43.9,2-65.8,3.4-1.1,18.9-2.2,37.8-3.1,56.7-.8,16.4-1.8,33.6-1.8,50.4s.7.4.5,1.6c-.1,1.2-8,3.8-9.5,4.2-14,4.4-27.9,6-42.4,7-.5,0-1.1,0-1.2.6h-24.9c-.2-.7-.8-.6-1.2-.6-20.6-1.2-40.1-4.3-59.8-10.2-.3-17.4-.3-34.8-1.1-52.1,0-.5-.6-.4-.6-.8-.9-18.9-1.9-37.8-3.1-56.7-11.8-1.1-23.5-2.1-35.2-2.8-16.9-1.1-32.8-1.8-49.4,3.4l-54.4,14.9L0,127v-1.2c1.2-.3,7.7-2.9,8.2-3.5.6-.6,0-1,0-1.6,2,2.2,1.4.2,1.7,0,.7-.4.6.6.7.6,1.3-.6,2-1.7,2.1-1.7.8-.3.4.8.9.6.4-.2,0-.5.3-.7,32.1-13.5,64.1-27.8,98.5-34.7,34.4-6.9,15.2-2.8,22.2-3.9,19-3.2,38.3-5,57.5-7.8,3.6-23.6-11.8-56.6,16.5-70l10.1-3h10.8,0ZM206.4,5.9c-.8,1.5.6,12,0,14.4,8.5-.6,16.7-1.6,25.4-1.1,8.6.4.3.6.8.6,3,.2,6.1.3,9.2.6V5.9c0-.4-7.1-3-7.7-3.2-6.7-1.7-17.5-1.6-23.9,1.2-6.4,2.8-3.6,1.8-3.8,2ZM205.6,20.6c.4-.6-.3-12.3,0-14.1-17.9,11.1-12.4,33.2-11.6,50.8.4,10.2-2.2,16.2,3.6,25.3,5.8,9,7.1,9,7.9,9s4.7-5.3,4.9-6.4c.2-1.1.2-12.3,0-12.9-.2-.6-3.3-3.5-3.9-4.7-5.2-9.1-15.4-38.5-4.8-45.7,10.7-7.3,3.8-1.1,4-1.3ZM242.6,6.8v13.8c0,.2,2.8.5,3.7,1,12.1,6.8.2,37.5-4.7,46.7-.5.9-3.1,3.5-3.2,3.7-.2.5-.1,10.8,0,11.8.2,1.6,4.5,6.5,5.1,6.2.6-.2,5.2-5.9,5.8-6.8,6.7-10.1,4.1-14.8,4.7-26.1.9-17.2,6.2-39.6-11.3-50.5h0ZM213.7,72.7c1.7.2,4-.2,5.8,0v-7h-4.4c-5.9,0-13.2-21-13.2-26.2s1.1-10,6-11.3c6.8-1.9,27.4-2.2,34,.2,5,1.8,5.1,9.5,4.8,13.9-.4,4.3-7.7,23.3-12.6,23.3h-7.8v7h8.7c4.8,0,9.6-12.5,11.2-16.5,2.8-7.6,8.9-29.4-.6-34-9.4-4.6-34.1-2.4-40.8-.6-10.6,2.8-6.4,22.1-3.9,29.7,2.4,7.6,6.8,20.3,12.8,21.3h0ZM244.8,33c-2.1-5.4-7.4-4.6-12.7-5s-23.4-.5-26.4,2.1-3,8.4-2.8,10.7c.2,4,6.1,18.8,8.9,21.7s2.1,1.9,3.7,2.2c2.8.5,15,.5,17.8,0,4.1-.5,6.9-6.6,8.4-10,2.8-6.3,5.9-15.2,3.1-21.9h0ZM211.6,72.7c-.4.5,0,11.2,0,12.9s-5.3,6.1-5.4,6.5c0,.4,3.8,3.4,3,5.1l7.7,60.7,3.7,1.1c-.7-22.1.9-44.8,0-66.9-1-22.1-1.1-2.6-1.2-4,0-1.3.7-14.3,0-14.3h-5.9c-.1,0-1.8-1.5-2-1.2h0ZM237.6,72.7c-1.1-.2-2.7,1.2-2.9,1.2h-8.5v85.7l4.1-1.4,7.8-61.7c.9-3.2,4.4-5,4.4-5.3.2-.5-5.1-4.8-5.1-6.7v-11.8h0ZM192.9,74.7l-56,7.7c-.4.5,1.4,10.6,2,12,1,2.4,17.1,21.3,19.1,22.2s6.2.2,8.6.7c5.1.9,19.7,13.3,23.1,17.6,3.8,4.6,7.6,14.8,10.8,18.1,3.2,3.3,11.6,4,15.6,4.9l-8-62c-4.8-5.4-9.9-9.9-13.4-16.3s-1.6-4.7-1.8-4.8h0ZM277.4,77.3l-22.7-2.6c-1.9,3.4-3.3,7.5-5.6,10.6-2.3,3.1-8.8,8.1-9.7,10-.8,1.9-2,12.6-2.4,15.3-2.2,15.8-3.6,31.7-5.6,47.4,4.3-1.2,13.2-1.9,16.6-5.1,3.3-3.2,5.9-10.9,8.1-14.2,3.9-5.9,19.4-20.4,26.2-21.6s6.4,0,9.3-1.1c3.7-4.6,8.1-8.7,11.9-13.2,3.8-4.6,6.2-7.2,6.9-8.8.6-1.7,1.9-11.1,1.5-11.5l-34.3-5.3h0ZM136.1,82.6c-.6-.5-13.8,2-15.6,2.3-26.2,4.6-50.8,13.2-75.6,23.2-24.8,10-20.5,9-30.9,13.4l10,30.8c.4.4,4.2-.6,4.6-.9.7-.8,2.6-9.2,3.7-10.1,22.6-7.9,45.9-16.3,69.8-19.8,6.8-.9,14.3-1.7,21.2-2.3,11.1-1,22.4-1.5,33.5-2-3.4-4.6-7.7-8.3-11.3-12.7-3.6-4.3-6.9-8-7.6-9.9-.7-1.9-1.2-11.5-1.7-11.9h0ZM326.6,84.9c-1.6-.2-13.6-2.6-14.1-2.1-.4.5-.8,9.8-2,12.5-1.2,2.7-6.1,8.1-7.5,9.7-3.5,4.1-7.8,7.6-11.1,12,27.7,1.2,55.4,3,82.2,10.1,8.2,2.2,16.8,4.9,24.9,7.7,3.6,1.2,14.3,4.4,17,6.2s1.5,12.7,8.1,11.1l10.1-30.7c-34.7-15.1-70-30.3-107.6-36.5h0ZM171,119.8c-8.2-4.6-35.6-.4-45.6.5-9.9.9-19.9,1.3-29.8,3.1-9.8,1.7-.3.6-.4.6-1,.2-.2-.7-1.1-.6-.9.2,0,.5-.2.6-1.9.3-15.1,2.5-15.6,3.2-.5.6,0,2,0,2.6-1.3.2.2-2.6-1.1-2.3l-17.4,5.3v1.2c-1,.3-.6-.9-.7-.9-.3,0-1.5.4-1.9.5-7.8,1.8-16.3,6.2-24.2,8.4l-3.6,9.3c3.8-1.4,7.8-2.1,11.7-3.2,3.9-1.1,1.8-.4,2.9-.7,4.9-1.3,9.7-2.5,14.6-3.8,4.8-1.2.4-1.1.5-1.1.5-.4.6.5.7.5,5.2-1.3,13.3-2.3,17.8-4.2.2,0,.2-.8.2-.9.3-.2.5.8.7.8,4.7,0,11.1-2.5,16.1-1.7.6-2.1.7,0,.9,0,4.8.8,12-.4,17.1.6l.6-1.1c-.4,1.4.8,1.2,2.2,1.4,4.5.6,9.7.6,14.4,1.1s0-.7.9-.6c.9,0,2.3,1.1,2.5,1.1,2,.2,14.3,1.7,15,1.4.7-.2-.3-1.4.7-1.2-.5,1.9,1.3.9,2.5,1.6.8,2.6.2,21.4,1.2,21.9s12.9-6.3,13.3-7.1-.6-1.9,1-2.1l11-28c0-.8-5.8-5.7-6.9-6.2h0ZM282.9,156.1c1,1.1,12.2,7.3,12.7,6.8.7-.8.3-20.6,1.2-21.8.8-1.1,4.8.6,3.9-1.4.9-.3.4.8.7.9s.9,0,1.4,0c5.5,0,11.2-1.7,16.7-2.2,5.4-.6,16.2-.4,16.8-.9.7-.6-.2-2.8,1.3,0,4.3-1.3,12.5.4,16.4-.6,3.9-.9.1-.8.1-.8,1.1-.6.8.8,1,.8,4.3,1.2,11.8,0,16.4,2,.4-2.7.6.2,1.2.5,1.3.8,13.5,2.7,16.2,3.4s.2.6.2.6c1.1.1.3-.9.5-1.2,1-.9.8,1.3.9,1.4.5.6,14.5,2.9,16.5,4.2l.7-.9c0,.4-.2.9.2,1.1,2,1.2,8.4,1.5,10.9,2.7l-3-8.9c-8.3-2.9-16.5-6-24.9-8.7-8.4-2.6-.5.9-1.2.6s.1-.8-.2-.9c-2.2-.7-16.4-5.4-17.2-5-.8.4.4,1.9-.7,1.7.5-2.4-1.4-2.3-3.2-2.9-14.5-4.4-30.6-5.1-45.6-6.4-9.6-.8-37.2-5-45.1-.6-2.2,1.2-5,4.6-7.2,6.1,3,7.6,6.1,15.2,9.3,22.9,3.2,7.6,1.5,5.8,3.1,7.5,0,0,0-1.9,0-2,1.1-1.6,1.1,3.6,0,2h0ZM15.4,130c-.4-1.2-2-7.8-2.4-8.1-.5-.3-9.7,4.8-11,5l10.4,28.9c1.2-.6,10.3-2.6,10.6-3.1.6-1.1-6.6-20.1-7.5-22.8h0ZM436.9,122.6c-.6-.2-1.4-.3-1.9-.7-.2,4.2-10.5,28.7-9.9,30.7.5,2,2.3-.4,2.9-.9,0,.4-.5,1.6-.2,1.9s8.4,2.6,9,1.8l9.4-28.2c0-.5-6.8-3.5-7.8-3.9s-1.1.2-1.4,0,.1-.7,0-.8h0ZM185.6,132.6c-.2-.2-.2-.9-.7-1.4s-6-5.1-6.3-4.7c-.4.3-1.6,4.1-1.8,4.7-.2.7.3,1.4.2,1.5-.1,0-1.1-.1-1.1,0-2.4,5.8-4.2,11.9-6.8,17.6,4.1.9,0,1.1-.6,1.5s-.9,3.5-1.9,4.7c-1,1.2-5.3,3.4-5.4,3.7,0,.3.9,6.9,1.1,7.4.1.4,1.2.4,1.2.8s-1.1.3-1.1.6c-.2.8,1.6,14.2,2,15.5.6,2.5.9.8,2.5,1.8l-2,.3,4.8,35.2h1.7c.2,1.1-1.2.4-1.4.6-.6.6,2.1,14.7,2,16.7l48.6-1.4v-77.8c-5.3-1.5-13.5-2.2-18.4-4.7-1.9-.9-2.4-2.5-3.7-3.4-1.2-.8-2.7,0-1.7-1.3,1-1.3,1.1.5,1.1-.4s-8.1-13.9-9.4-15.3c-1.2-1.4-2.4-1.6-3-2.2h0ZM279.1,150.4c-1.8-4.2-4.4-14-6.5-17.3-2.2-3.4-.8-.5-1.4-.5,1.7-1.4-1.4-4.4-1.5-6.5-2.8,3.1-7.4,5.8-10,9-2.7,3.1-5.8,10.4-9.1,14.9,2.3,2-.1,1.3-.6,1.7-.4.4-.4,1-.9,1.4-5.6,4.8-16.1,4.8-22.9,7.3v7.5c0,.1,1.6-.3,1.1.7-.5,1.1-1.1,0-1.1.2v16.9c0,.1,1.6-.4,1.1.7s-1.1,0-1.1.2v17.5c4.3.5.1.7,0,.9-1.2,1.1.9,28.8,0,32.6l50.6,1.4,9.6-69.9c-3.7-.8-.2-.9,0-1.1.2-.3,1.4-7,1.3-7.4s-5-2.7-6.1-4.2c-1.2-1.6-1.5-4.8-1.7-4.9-.2-.2-2,.9-2.5-.2-.5-1,1.2-.8,1.7-.7.1.3-.3.7.6.6,0-.8,0-.5-.6-.6ZM160.4,160.6l-7.4,3.2c.1,15.4,1.9,31,2.6,46.4.1,3.4-.7,29.6.7,30.1,1.4.6,12.4-1.7,14.8-1.4l-10.8-78.3h0ZM292,162.1c-1.1-.5-2.5-.8-3.5-1.5l-10.8,78.2c1.9,0,13.6,2,14.1,1.5,1.1-1,.4-26.3.6-30.1.5-13.8,2.9-29.2,2.8-42.7,0-13.4.2-3.4-.1-3.9-.3-.4-2.6-1.3-3.1-1.6h0ZM220.6,238.4c-16,.1-31.9.4-47.7,1.4-.3,0-.8.8-1.4.8-.7,0-.2-.5-.3-.5-1.9.1-14.4.6-15.1,1.1-.6.6.6,2.1.6,2.4s-.6.1-.6.2v6.2l64.5-2.6v-9.1h0ZM291.9,250v-6.2c0,0-1-.2-1.1-.3-.7-.8,1.4-.4,0-1.4,1.3.4,1.8-.8.4-1.2-1.4-.4-12-1-12.8-.8-.8.1-1,0-.9.8l1.4.6c-2.6.5-1-1.1-3.1-1.6-3.3-.8-9.3-.8-12.6-.9-12.2-.7-24.6-.2-36.9-.6-.1.9.6,2.2.6,2.4,0,.2-.6,0-.6.6,0,2,.1,4.1,0,6.1l65.6,2.6h.1ZM291.8,242.6v.3h.1c0-.1-.1-.3-.1-.3ZM220.8,248.4c-8.9,0-17.7,0-26.5.5,14.3,1.7,28.9,3,43.4,2.3.5,0,.4-.6.8-.6,1.4-.1,18.5-.6,18.6-1.6,0-.9-18-.7-19.4-.7-5.6,0-11.7,0-16.9,0ZM202.1,250.7c-4.9-.4-10.6-1.6-15.3-1.8-9.4-.3-19.8,1.7-29.2,1.7-.1.4,0,.4.3.7.5.5,12.8,3.4,14.5,3.8,33.6,7.4,73.5,9,107.1,0,4-1,8.1-3,12.1-4-2.4-.7-5.1-.8-7.5-1-23.6-1.8-44.3,2.9-67.9,2-4.7-.2-9.7-1-14.1-1.4h0Z"/><path class="f" d="M276,150.4c1.9,1.5-3.8,1.5-2,0,1.9-1.5,1.9,0,2,0Z"/><path class="f" d="M265.6,150.4c1.9,1.5-3.9,1.5-2,0s1.9,0,2,0Z"/><path class="f" d="M272.3,150.5c1.6.9-1.4,1.7-1.9.6-.5-1,1.4-1,1.9-.6Z"/><path class="f" d="M269,150.5c1.3.7-1.3,1.6-2,1.1s.8-1.7,2-1.1Z"/><path class="f" d="M261.9,150.5c1.2.8-1.3,1.5-2,1.1,0-.9,1.4-1.5,2-1.1Z"/><path class="f" d="M273.5,204.2c1.6,1.1-3.9,1.1-2.2,0,1.6-1.1,2.1,0,2.2,0Z"/><path class="f" d="M280.5,204.2c1.6,1.1-3.9,1.1-2.2,0,1.7-1.1,2.2,0,2.2,0Z"/><path class="f" d="M258.5,150.4c1.8,1.4-3.5,1.4-1.7,0,1.8-1.4,1.7,0,1.7,0Z"/><path class="f" d="M249.1,204.2c1.6,1.1-3.9,1.1-2.2,0,1.7-1.1,2.2,0,2.2,0Z"/><path class="f" d="M242.1,204.2c1.6,1.1-3.9,1.1-2.2,0,1.6-1.1,2.1,0,2.2,0Z"/><path class="f" d="M235.1,204.2c1.6,1.1-3.9,1.1-2.2,0,1.6-1.1,2.1,0,2.2,0Z"/><path class="f" d="M254.8,150.5c1.1.6-1.1,1.6-1.7,1.1-.6-.5.6-1.8,1.7-1.1Z"/><path class="f" d="M274.4,168.9c-1.2-.9,2.2-1.2,2.2-.4s-2.1.6-2.2.4Z"/><path class="f" d="M231.1,168c.2,1.2-2.2,1-2.2.4s1.8-.4,2.2-.4Z"/><path class="f" d="M274.4,186.6c-.2-1.2,2.2-1,2.2-.4s-1.9.4-2.2.4Z"/><path class="f" d="M273,185.8c1.6,1.1-3.6,1.1-2,0,1.5-1.1,1.9,0,2,0Z"/><path class="f" d="M267.2,186.6c-.2-1.2,2.2-1,2.2-.4s-1.9.4-2.2.4Z"/><path class="f" d="M265.9,185.8c1.6,1.1-3.6,1.1-2,0,1.5-1.1,1.9,0,2,0Z"/><path class="f" d="M241.6,185.8c1.6,1.1-3.6,1.1-2,0,1.6-1.1,1.9,0,2,0Z"/><path class="f" d="M235.9,186.6c-.2-1.2,2.2-1,2.2-.4s-1.8.4-2.2.4Z"/><path class="f" d="M234.4,185.8c1.6,1.1-3.6,1.1-2,0,1.6-1.1,1.9,0,2,0Z"/><path class="f" d="M231.1,186.6c-.4,0-2.2.1-2.2-.4s2.5-.8,2.2.4Z"/><path class="f" d="M234.4,168c1.6,1.1-3.6,1.1-2,0s1.9,0,2,0Z"/><path class="f" d="M280,168c1.6,1.1-3.5,1.1-2,0s1.9,0,2,0Z"/><path class="f" d="M241.6,168c1.6,1.1-3.6,1.1-2,0s1.9,0,2,0Z"/><path class="f" d="M231.4,204.2c1.6,1.1-3.6,1.1-2,0,1.5-1.1,1.9,0,2,0Z"/><path class="f" d="M273,168c1.6,1.1-3.6,1.1-2,0,1.5-1.1,1.9,0,2,0Z"/><path class="f" d="M267.2,168c.4,0,2.2-.1,2.2.4s-2.5.8-2.2-.4Z"/><path class="f" d="M238.4,204.2c1.6,1.1-3.6,1.1-2,0,1.6-1.1,1.9,0,2,0Z"/><path class="f" d="M245.5,204.2c1.6,1.1-3.6,1.1-2,0,1.6-1.1,1.9,0,2,0Z"/><path class="f" d="M255.9,204.2c1.6,1.1-3.6,1.1-2,0,1.6-1.1,1.9,0,2,0Z"/><path class="f" d="M266.5,204.2c1.6,1.1-3.6,1.1-2,0,1.5-1.1,1.9,0,2,0Z"/><path class="f" d="M269.8,204.2c1.6,1.1-3.5,1.1-2,0,1.6-1.1,1.9,0,2,0Z"/><path class="f" d="M276.9,204.2c1.6,1.1-3.5,1.1-2,0,1.6-1.1,1.9,0,2,0Z"/><path class="f" d="M265.9,168c1.6,1.1-3.6,1.1-2,0,1.5-1.1,1.9,0,2,0Z"/><path class="f" d="M245.2,168.3c-.5,1.1-3.3.4-2.2-.3s1.8.1,2.2.3Z"/><path class="f" d="M236.4,168.1c.4-.2,1.8-.1,1.8.4,0,1-3.4.2-1.8-.4Z"/><path class="f" d="M280,186.6c-.5.4-3,0-2-.8s2.6.3,2,.8Z"/><path class="f" d="M255.4,168c1.1.8-1.9,1.2-1.9.4s1.8-.5,1.9-.4Z"/><path class="f" d="M245.2,186.1l-2.2.5c0-1.3,1.5-.8,2.2-.5Z"/><path class="f" d="M258.8,168c1.5,1.1-3.2,1.1-1.7,0s1.6,0,1.7,0Z"/><path class="f" d="M248.3,168c1.5,1.1-3.2,1.1-1.7,0s1.6,0,1.7,0Z"/><path class="f" d="M251.7,168c1.5,1.1-3.2,1.1-1.7,0s1.6,0,1.7,0Z"/><path class="f" d="M262.5,168c.2,1.1-2,1-2,.4s1.6-.5,2-.4Z"/><path class="f" d="M283.1,168c1.5,1.1-3.2,1.1-1.7,0s1.6,0,1.7,0Z"/><path class="f" d="M262.8,204.2c1.5,1.1-3.2,1.1-1.7,0s1.7,0,1.7,0Z"/><path class="f" d="M259.4,204.2c1.5,1.1-3.2,1.1-1.7,0s1.6,0,1.7,0Z"/><path class="f" d="M252.3,204.2c1.5,1.1-3.2,1.1-1.7,0s1.6,0,1.7,0Z"/><path class="f" d="M262.5,186.6c-.4,0-2,.1-2-.4s2.2-.8,2,.4Z"/><path class="f" d="M255.4,186.6c-.3,0-2,.1-1.9-.4s2.2-.8,1.9.4Z"/><path class="f" d="M258.8,185.8c1.5,1.1-3.2,1.1-1.7,0s1.6,0,1.7,0Z"/><path class="f" d="M251.7,185.8c.9.6-1.2,1.2-1.7.8-.5-.3,1.2-1.2,1.7-.8Z"/><path class="f" d="M248.3,186.6c-.5.4-2.6-.2-1.7-.8.8-.7,2.3.4,1.7.8Z"/><path class="f" d="M283.1,185.8c.9.6-1.2,1.2-1.7.8-.5-.3,1.2-1.2,1.7-.8Z"/><path class="f" d="M272.1,221.8c.2,1.1-1.6.4-2.2.6-.2-1.1,1.6-.4,2.2-.6Z"/><path class="f" d="M265,221.8c.2,1.1-1.6.4-2.2.6-.2-1.1,1.6-.4,2.2-.6Z"/><path class="f" d="M258,221.8c.2,1.1-1.7.4-2.3.6-.2-1.1,1.7-.4,2.3-.6Z"/><path class="f" d="M229.9,221.8c.2,1.1-1.4.4-2,.6-.2-1.1,1.4-.4,2-.6Z"/><path class="f" d="M233.4,221.8c.2,1.1-1.4.4-2,.6-.2-1.1,1.4-.4,2-.6Z"/><path class="f" d="M240.4,221.8c.2,1.1-1.4.4-2,.6-.2-1.1,1.4-.4,2-.6Z"/><path class="f" d="M254.2,221.8c.2,1.1-1.4.4-2,.6-.2-1.1,1.4-.4,2-.6Z"/><path class="f" d="M261.4,221.8c.2,1.1-1.4.4-2,.6-.2-1.1,1.4-.4,2-.6Z"/><path class="f" d="M268.4,221.8c.2,1.1-1.4.4-2,.6-.2-1.1,1.4-.4,2-.6Z"/><path class="f" d="M266.4,132.1c.2,1-1.4.4-2,.5-.2-1,1.4-.4,2-.5Z"/><path class="f" d="M269.8,132.1c.2,1-1.4.4-2,.5-.2-1,1.4-.4,2-.5Z"/><path class="f" d="M247.4,221.8l-2,.6c-.2-1.1,1.4-.4,2-.6Z"/><path class="f" d="M278.9,221.8l-2,.6c-.2-1.1,1.4-.4,2-.6Z"/><path class="f" d="M250.9,221.8c1.2.8-3,.8-1.7,0s1.6,0,1.7,0Z"/><path class="f" d="M243.8,221.8c1.2.8-2.9.8-1.7,0s1.6,0,1.7,0Z"/><path class="f" d="M236.8,221.8c1.2.8-2.9.8-1.7,0s1.6,0,1.7,0Z"/><path class="f" d="M275.2,221.8c1.2.8-3,.8-1.7,0s1.6,0,1.7,0Z"/><path class="f" d="M177.6,150.5s.4.8,0,.9c-2.7,1.4-2.7-2.2,0-.9Z"/><path class="f" d="M184.7,150.4c1.9,1.5-3.8,1.5-2,0,1.9-1.5,1.9,0,2,0Z"/><path class="f" d="M191.8,150.4c1.9,1.5-3.9,1.5-2,0s1.9,0,2,0Z"/><path class="f" d="M180.9,150.5c1.6.9-1.4,1.7-1.9.6-.5-1,1.3-1,1.9-.6Z"/><path class="f" d="M188.1,150.5c1.6.9-1.4,1.7-1.9.6-.5-1,1.4-1,1.9-.6Z"/><path class="f" d="M177.1,204.2c1.6,1.1-3.9,1.1-2.2,0,1.6-1.1,2.1,0,2.2,0Z"/><path class="f" d="M174.2,150.4c1.8,1.4-3.5,1.4-1.7,0s1.6,0,1.7,0Z"/><path class="f" d="M215.5,204.2c1.6,1.1-3.9,1.1-2.2,0,1.6-1.1,2.1,0,2.2,0Z"/><path class="f" d="M208.4,204.2c1.6,1.1-3.9,1.1-2.2,0,1.7-1.1,2.2,0,2.2,0Z"/><path class="f" d="M170,204.2c1.6,1.1-3.9,1.1-2.2,0,1.6-1.1,2.1,0,2.2,0Z"/><path class="f" d="M184.1,204.2c1.6,1.1-3.9,1.1-2.2,0,1.6-1.1,2.1,0,2.2,0Z"/><path class="f" d="M194.9,150.5c1.1.6-1.1,1.6-1.7,1.1-.6-.5.6-1.8,1.7-1.1Z"/><path class="f" d="M180.4,204.2c1.6,1.1-3.6,1.1-2,0,1.6-1.1,1.9,0,2,0Z"/><path class="f" d="M173.4,204.2c1.6,1.1-3.5,1.1-2,0,1.6-1.1,1.9,0,2,0Z"/><path class="f" d="M194.3,204.2c1.6,1.1-3.6,1.1-2,0,1.6-1.1,1.9,0,2,0Z"/><path class="f" d="M217.2,168c.4,0,2.2-.1,2.2.4s-2.5.8-2.2-.4Z"/><path class="f" d="M215.8,168c1.6,1.1-3.6,1.1-2,0s1.9,0,2,0Z"/><path class="f" d="M201.4,204.2c1.6,1.1-3.5,1.1-2,0,1.6-1.1,1.9,0,2,0Z"/><path class="f" d="M204.8,204.2c1.6,1.1-3.6,1.1-2,0,1.6-1.1,1.9,0,2,0Z"/><path class="f" d="M217.2,186.6c-.2-1.2,2.2-1,2.2-.4s-1.8.4-2.2.4Z"/><path class="f" d="M215.8,185.8c1.6,1.1-3.6,1.1-2,0,1.6-1.1,1.9,0,2,0Z"/><path class="f" d="M211.9,204.2c1.6,1.1-3.6,1.1-2,0,1.5-1.1,1.9,0,2,0Z"/><path class="f" d="M212.4,186.6c-.4,0-2.2.1-2.2-.4s2.5-.8,2.2.4Z"/><path class="f" d="M185.8,186.6c-.2-1.2,2.2-1,2.2-.4s-1.9.4-2.2.4Z"/><path class="f" d="M184.4,185.8c1.6,1.1-3.5,1.1-2,0,1.6-1.1,1.9,0,2,0Z"/><path class="f" d="M181,186.6c-.4,0-2.2.1-2.2-.4s2.5-.8,2.2.4Z"/><path class="f" d="M177.4,185.8c1.6,1.1-3.6,1.1-2,0,1.5-1.1,1.9,0,2,0Z"/><path class="f" d="M173.9,186.6c-.4,0-2.2.1-2.2-.4s2.5-.8,2.2.4Z"/><path class="f" d="M170.2,185.8c1.6,1.1-3.6,1.1-2,0,1.6-1.1,1.9,0,2,0Z"/><path class="f" d="M218.9,204.2c1.6,1.1-3.5,1.1-2,0,1.6-1.1,1.9,0,2,0Z"/><path class="f" d="M185.8,168c.4,0,2.2-.1,2.2.4s-2.5.8-2.2-.4Z"/><path class="f" d="M184.4,168c1.6,1.1-3.5,1.1-2,0,1.6-1.1,1.9,0,2,0Z"/><path class="f" d="M177.4,168c1.6,1.1-3.6,1.1-2,0,1.5-1.1,1.9,0,2,0Z"/><path class="f" d="M173.9,168c.2,1.2-2.2,1-2.2.4s1.9-.4,2.2-.4Z"/><path class="f" d="M170.2,168c1.6,1.1-3.6,1.1-2,0s1.9,0,2,0Z"/><path class="f" d="M179.2,168.1c.4-.2,1.8-.1,1.8.4,0,1-3.4.2-1.8-.4Z"/><path class="f" d="M210.6,168.1c.4-.2,1.8-.1,1.8.4,0,1-3.4.2-1.8-.4Z"/><path class="f" d="M166.9,168c1.1.8-2,1.2-2,.4s1.8-.5,2-.4Z"/><path class="f" d="M192.9,168.9c-1.1-.8,2-1.2,2-.4s-1.8.6-2,.4Z"/><path class="f" d="M198.2,168c1.1.8-1.9,1.2-1.9.4s1.8-.5,1.9-.4Z"/><path class="f" d="M208.8,168c1.5,1.1-3.2,1.1-1.7,0s1.6,0,1.7,0Z"/><path class="f" d="M205.4,168c.2,1.1-2,1-2,.4s1.6-.5,2-.4Z"/><path class="f" d="M201.6,168c1.5,1.1-3.2,1.1-1.7,0s1.7,0,1.7,0Z"/><path class="f" d="M191.2,168c1.5,1.1-3.2,1.1-1.7,0s1.6,0,1.7,0Z"/><path class="f" d="M191.2,185.8c1.5,1.1-3.2,1.1-1.7,0s1.6,0,1.7,0Z"/><path class="f" d="M192.9,186.6c-.2-1.1,2-1,2-.4s-1.6.5-2,.4Z"/><path class="f" d="M198.2,186.6c-.4,0-2,.1-1.9-.4s2.2-.8,1.9.4Z"/><path class="f" d="M201.6,185.8c1.5,1.1-3.2,1.1-1.7,0s1.7,0,1.7,0Z"/><path class="f" d="M205.4,186.6c-.4,0-2,.1-2-.4,0-.5,2.2-.8,2,.4Z"/><path class="f" d="M208.8,185.8c1.5,1.1-3.2,1.1-1.7,0s1.6,0,1.7,0Z"/><path class="f" d="M187.2,204.2c1.5,1.1-3.2,1.1-1.7,0s1.6,0,1.7,0Z"/><path class="f" d="M197.7,204.2c1.5,1.1-3.2,1.1-1.7,0s1.6,0,1.7,0Z"/><path class="f" d="M190.6,204.2c1.5,1.1-3.2,1.1-1.7,0s1.7,0,1.7,0Z"/><path class="f" d="M185.6,221.8c.2,1.1-1.7.4-2.2.6-.2-1.1,1.6-.4,2.2-.6Z"/><path class="f" d="M184.1,132.1c.2,1.1-1.7.4-2.2.5-.2-1.1,1.6-.4,2.2-.5Z"/><path class="f" d="M192.6,221.8c.2,1.1-1.7.4-2.2.6-.2-1.1,1.6-.4,2.2-.6Z"/><path class="f" d="M178.4,221.8c.2,1.1-1.4.4-2,.6-.2-1.1,1.4-.4,2-.6Z"/><path class="f" d="M188.9,221.8c.2,1.1-1.4.4-2,.6-.2-1.1,1.4-.4,2-.6Z"/><path class="f" d="M196,221.8c.2,1.1-1.4.4-2,.6-.2-1.1,1.4-.4,2-.6Z"/><path class="f" d="M199.4,221.8c.2,1.1-1.4.4-2,.6-.2-1.1,1.4-.4,2-.6Z"/><path class="f" d="M202.8,221.8c.2,1.1-1.4.4-2,.6-.2-1.1,1.4-.4,2-.6Z"/><path class="f" d="M209.9,221.8c.2,1.1-1.4.4-2,.6-.2-1.1,1.4-.4,2-.6Z"/><path class="f" d="M216.9,221.8c.2,1.1-1.4.4-2,.6-.2-1.1,1.4-.4,2-.6Z"/><path class="f" d="M180.4,132.1c.2,1-1.4.4-2,.5-.2-1,1.4-.4,2-.5Z"/><path class="f" d="M220.3,221.8c1.2.8-2.9.8-1.7,0s1.6,0,1.7,0Z"/><path class="f" d="M213.2,221.8c1.2.8-2.9.8-1.7,0s1.6,0,1.7,0Z"/><path class="f" d="M206.2,221.8c1.2.8-2.9.8-1.7,0s1.6,0,1.7,0Z"/><path class="f" d="M181.9,221.8c1.2.8-3,.8-1.7,0s1.6,0,1.7,0Z"/><path class="f" d="M174.8,221.8c1.2.8-2.9.8-1.7,0s1.6,0,1.7,0Z"/><path class="f" d="M42.7,145.4c-1,1.2-1.8-1.7-.7-2,1-.3.8,1.8.7,2Z"/><path class="f" d="M42.7,140c0,0,0,1.6,0,1.7-1.5,1.8-1.5-3.5,0-1.7Z"/><path class="f" d="M130.6,134.6c0,0,0,2.1,0,2.2-1.1,1.6-1.1-3.9,0-2.2Z"/><path class="f" d="M166,121.3l.4-2.2c.7.6.8,2.3-.4,2.2Z"/><path class="f" d="M166.6,150.4c.7.7,0,3-.6,2.2s-.2-3,.6-2.2Z"/><path class="f" d="M130.6,131.2c0,.1,0,1.9,0,2-1.1,1.6-1.1-3.6,0-2Z"/><path class="f" d="M130.6,127.8c0,0,0,1.9,0,2-1.1,1.6-1.1-3.6,0-2Z"/><path class="f" d="M166,126.2c1.2-.2,1,2.2.4,2.2s-.4-1.8-.4-2.2Z"/><path class="f" d="M130.6,120.8c0,0,0,1.9,0,2-1.1,1.6-1.1-3.6,0-2Z"/><path class="f" d="M166.9,122.8c0,0,0,1.3,0,1.5-1,2.4-1.1-3.1,0-1.5Z"/><path class="f" d="M166.9,129.8c0,.1,0,2.3-.9,2-.2-.7.1-2.9.9-2Z"/><path class="f" d="M166.6,135.4l-.6-2.2c1.3,0,.8,1.5.6,2.2Z"/><path class="f" d="M130.6,124.4v1.7c-1,1.5-1-3.2,0-1.7Z"/><path class="f" d="M166.9,147.4v1.7c-1.1,1.5-1.1-3.2,0-1.7Z"/><path class="f" d="M166,145.6c0-.3-.1-2,.4-1.9s.8,2.2-.4,1.9Z"/><path class="f" d="M166,138.6c0-.4-.1-2,.4-2,.5,0,.8,2.2-.4,2Z"/><path class="f" d="M166.9,142c-.7.9-1.2-1.2-.9-1.7s1.2,1.2.9,1.7Z"/><path class="f" d="M113.2,122.2c-.2.6.5,2.5-.6,2.2.2-.6-.5-2.5.6-2.2Z"/><path class="f" d="M148.8,118.5c0,.3.1,2.2-.1,2.2s-1-2.6.1-2.2Z"/><path class="f" d="M148.8,124.2c-1.1.3-.6-2.2-.1-2.2s0,1.9.1,2.2Z"/><path class="f" d="M59.7,140.9c-1.1.3-.6-2.2-.2-2.2s0,1.9.2,2.2Z"/><path class="f" d="M78.3,134.4l-.5,2.2c.2-.6-.5-2.5.5-2.2Z"/><path class="f" d="M78.3,130.9c-.2.6.5,2.2-.5,2,.1-.6-.5-2.2.5-2Z"/><path class="f" d="M148.8,136.1c-.1.6.5,2.2-.6,2,.2-.6-.5-2.2.6-2Z"/><path class="f" d="M113.2,129.2c-.2.6.5,2.2-.6,2,.2-.6-.5-2.2.6-2Z"/><path class="f" d="M95.3,125.3c-.2.6.5,2.2-.6,2,.2-.6-.5-2.2.6-2Z"/><path class="f" d="M95.3,132.4c-.2.6.5,2.2-.6,2,.2-.6-.5-2.2.6-2Z"/><path class="f" d="M113.2,125.8c-.2.6.5,2.2-.6,2,.2-.6-.5-2.2.6-2Z"/><path class="f" d="M148.8,130.9c-1.1.4-.5-1.9-.1-2,.3,0,0,1.7.1,2Z"/><path class="f" d="M95.3,128.9v1.7c-.8,1.2-.8-2.9,0-1.7Z"/><path class="f" d="M113.2,132.9v1.7c-.8,1.2-.8-2.9,0-1.7Z"/><path class="f" d="M148.8,125.6v1.7c-.8,1.2-.8-3,0-1.7Z"/><path class="f" d="M148.8,132.6v1.7c-.8,1.2-.8-3,0-1.7Z"/><path class="f" d="M59.7,135.5v1.7c-.8,1.2-.8-2.9,0-1.7Z"/><path class="f" d="M336.3,124.4c-.1-.1-.1-2.5.7-2.2s.1,3.2-.7,2.2Z"/><path class="f" d="M337.4,125.8c0,0,0,1.9,0,2-1.5,1.9-1.5-3.8,0-2Z"/><path class="f" d="M336.3,131.2c0-.1-.3-2.5.7-2s-.1,2.7-.7,2Z"/><path class="f" d="M283.7,126.2c0,0,0,2.2,0,2.2-1.1,1.6-1.1-3.9,0-2.2Z"/><path class="f" d="M337.4,132.9c0,0,0,1.7,0,1.7-1.4,1.8-1.4-3.5,0-1.7Z"/><path class="f" d="M283.7,150.4c0,.1,0,2.2,0,2.2-1.1,1.6-1.1-3.9,0-2.2Z"/><path class="f" d="M283.7,119.1c0,0,0,2.1,0,2.2-1.1,1.6-1.1-3.9,0-2.2Z"/><path class="f" d="M283.7,136.6c0,0,0,1.9,0,2-1.1,1.6-1.1-3.6,0-2Z"/><path class="f" d="M319.9,134.6c0,.4.1,2.2-.4,2.2s-.8-2.5.4-2.2Z"/><path class="f" d="M283.7,143.7c0,.1,0,1.9,0,2-1.1,1.6-1.1-3.6,0-2Z"/><path class="f" d="M319.9,131.2c0,.1,0,1.9,0,2-1.1,1.6-1.1-3.6,0-2Z"/><path class="f" d="M283.7,129.8c0,0,0,1.9,0,2-1.1,1.6-1.1-3.6,0-2Z"/><path class="f" d="M283.7,122.8c0,0,0,1.9,0,2-1.1,1.6-1.1-3.6,0-2Z"/><path class="f" d="M319.9,122.8c-1.1.2-1-1.9-.4-1.9s.5,1.6.4,1.9Z"/><path class="f" d="M319.9,124.4v1.7c-1,1.5-1-3.2,0-1.7Z"/><path class="f" d="M283.7,147.4v1.7c-1.1,1.5-1.1-3.2,0-1.7Z"/><path class="f" d="M283.7,133.2v1.7c-1.1,1.5-1.1-3.2,0-1.7Z"/><path class="f" d="M283.7,140.3v1.7c-1.1,1.5-1.1-3.2,0-1.7Z"/><path class="f" d="M319.5,127.8c.6,0,.6,2,0,2s-.6-2,0-2Z"/><path class="f" d="M301.2,124.2c-1.1.3-.6-2.2-.2-2.2s0,1.9.2,2.2Z"/><path class="f" d="M301.2,136.1c-.2.6.5,2.2-.6,2,.1-.6-.5-2.2.6-2Z"/><path class="f" d="M301.2,118.5c-.2.6.5,2.2-.6,2,.1-.6-.5-2.2.6-2Z"/><path class="f" d="M301.2,128.9c-.2.6.5,2.2-.6,2,.1-.6-.5-2.2.6-2Z"/><path class="f" d="M301.2,132.6v1.7c-.8,1.2-.8-3,0-1.7Z"/><path class="f" d="M301.2,125.6v1.7c-.8,1.2-.8-3,0-1.7Z"/><path class="f" d="M163.4,186.1c0,0,0,.2-.1.3-.4.4-.5.4-.4-.1,0-.2.5-.1.5-.1h0Z"/><path class="f" d="M235.5,239.6c2.5-.9,1.6,3-.3,1.4-1.9-1.6-.1-1.2.3-1.4Z"/><path class="f" d="M289.4,241.8c.4.9-.9.4-.9.7s1.7.4.9,1c-1.8,1.4-3-3.1,0-1.7Z"/><path class="f" d="M268.7,240.4c.9.6-1.2,2.2-2.2,1.4-.3-1.1,1.4-.2,1.4-.7s-1.7.4-1.4-.7c.5.1,2-.1,2.2,0Z"/><path class="f" d="M254.5,240.1c1.6,2.1-3.4,1.7-1.6-.3,1.8-2,1.6.2,1.6.3Z"/><path class="f" d="M230.2,239.6c.8.4-.8,2.2-2.2,1.4l1.2-.6c-2.7-.4.5-1.2,1.1-.8h0Z"/><path class="f" d="M261.6,240.1c.8.4-.8,2.2-2.2,1.4l1.4-.6c-3.1-.4.1-1.3.9-.8Z"/><path class="f" d="M273.5,242.1c-.4-.8.5-.5.5-.7s-.9,0-.5-.7c2.6-.6,2.6,2.4,0,1.4Z"/><path class="f" d="M265,240.4c.3,1.1-1.4.2-1.4.7s1.7-.4,1.4.7c-2.9.6-2.9-2,0-1.4Z"/><path class="f" d="M240.4,239.9c1,.9-1,2-1.7,1.4-.6-.6,1.1-2.1,1.7-1.4Z"/><path class="f" d="M286,241.6c.3,1.1-1.2.3-1.2.7s1.4-.4,1.2.7c-2.6.5-2.7-2.3,0-1.4Z"/><path class="f" d="M233.4,239.6c.8.8-.7,2.1-1.7,1.4-1-.6.7-2.4,1.7-1.4Z"/><path class="f" d="M258.2,240.1c.2,1.1-1.7.4-2.3.5-.2-1.1,1.7-.4,2.3-.5Z"/><path class="f" d="M258.2,240.9l-2.3.6c-.2-1.1,1.7-.4,2.3-.6Z"/><path class="f" d="M272.1,241.6c.2,1.1-1.4.4-2,.6-.2-1.1,1.4-.4,2-.6Z"/><path class="f" d="M282.5,241.2c.2,1.1-1.4.4-2,.6-.2-1.1,1.4-.4,2-.6Z"/><path class="f" d="M272.1,240.7c.2,1.1-1.4.4-2,.6-.2-1.1,1.4-.4,2-.6Z"/><path class="f" d="M251.1,240.7c.2,1.1-1.4.4-2,.6-.2-1.1,1.4-.4,2-.6Z"/><path class="f" d="M244.1,240.7c.2,1.1-1.4.4-2,.6-.2-1.1,1.4-.4,2-.6Z"/><path class="f" d="M244.1,239.9c.2,1-1.4.4-2,.5-.2-1,1.4-.4,2-.5Z"/><path class="f" d="M251.1,240.4c-.6-.1-2.2.5-2-.5l2,.5Z"/><path class="f" d="M282.5,242.1l-2,.5c-.2-1,1.4-.4,2-.5Z"/><path class="f" d="M247.4,240.7c1.2.8-2.9.8-1.7,0s1.6,0,1.7,0Z"/><path class="f" d="M278.9,241.8c1.2.8-3,.8-1.7,0s1.6,0,1.7,0Z"/><path class="f" d="M247.4,239.9c1.2.8-2.9.8-1.7,0s1.6,0,1.7,0Z"/><path class="f" d="M210.4,240.9c-.1-.5.6,0,.6-.4-.1-.8-.6-.1-.6-.7,3.1-1.3,3.2,2.4,0,1.1Z"/><path class="f" d="M219.8,240.9c-2.6,1.4-3.2-2.8-.2-1.3s.3,1.2.2,1.3Z"/><path class="f" d="M188.4,240.1c.3.8-.6.4-.6.7s.9,0,.6.7c-3.3.6-3.1-1.9,0-1.4Z"/><path class="f" d="M216.1,239.6c1.1,1.1-1.4,1.9-2,1.4-1.1-1.1,1.4-1.9,2-1.4Z"/><path class="f" d="M174.2,240.7c.9,1-1.1,2.3-2.2,1.4,0-.6.4,0,.6-.7.1-.8-.7.1-.6-.4.4.1,2.2-.4,2.2-.3Z"/><path class="f" d="M181.3,240.4c.3,1-.9.4-.9.7s1.2-.2.9.7c-3.2.6-2.9-1.9,0-1.4Z"/><path class="f" d="M195.1,240.1c0,0-.2,1.2-.2,1.3-2.5,1.5-2.2-2.6.2-1.3Z"/><path class="f" d="M209,239.9c.8.8-.6,2-1.7,1.4s.6-2.4,1.7-1.4Z"/><path class="f" d="M198.6,239.9c.3.9-.9.3-.9.7s1.2-.2.9.7c-2.8.6-2.6-1.9,0-1.4Z"/><path class="f" d="M170.9,241.6c-.3,0-1.4-.2-1.4.1,0,.4,1.7-.4,1.4.7-3,.9-2.4-2.9,0-.8Z"/><path class="f" d="M160.1,242.6c1.5,1.1-3.2,1.1-1.7,0,1.5-1,1.7,0,1.7,0Z"/><path class="f" d="M163.8,242.4c.2,1.1-1.4.4-2,.6-.2-1.1,1.4-.4,2-.6Z"/><path class="f" d="M177.6,241.6c.2,1.1-1.4.4-2,.6-.2-1.1,1.4-.4,2-.6Z"/><path class="f" d="M163.8,241.6c.2,1.1-1.4.4-2,.6-.2-1.1,1.4-.4,2-.6Z"/><path class="f" d="M184.7,241.2c.2,1.1-1.4.4-2,.6-.2-1.1,1.4-.4,2-.6Z"/><path class="f" d="M191.8,240.9c.2,1.1-1.4.4-2,.6-.2-1.1,1.4-.4,2-.6Z"/><path class="f" d="M205.6,240.7c.2,1.1-1.4.4-2,.6-.2-1.1,1.4-.4,2-.6Z"/><path class="f" d="M177.6,240.7c.2,1.1-1.4.4-2,.6-.2-1.1,1.4-.4,2-.6Z"/><path class="f" d="M184.7,240.4c.2,1.1-1.4.4-2,.6-.2-1.1,1.4-.4,2-.6Z"/><path class="f" d="M205.6,239.9c.2,1-1.4.4-2,.5-.2-1,1.4-.4,2-.5Z"/><path class="f" d="M191.8,240.1c.2,1-1.4.4-2,.5-.2-1,1.4-.4,2-.5Z"/><path class="f" d="M201.9,240.7c1.2.8-2.9.8-1.7,0s1.6,0,1.7,0Z"/><path class="f" d="M201.9,239.9c1.2.8-2.9.8-1.7,0s1.6,0,1.7,0Z"/><path class="f" d="M167.1,241.2c1.2.8-2.9.8-1.7,0s1.6,0,1.7,0Z"/><path class="f" d="M160.1,241.8c1.2.8-3,.8-1.7,0s1.6,0,1.7,0Z"/><path class="f" d="M167.1,242.1c1.2.8-2.9.8-1.7,0s1.6,0,1.7,0Z"/><path class="f" d="M19.5,147.4s.3,1.3.2,1.5c-.6,2.2-1.9-3-.2-1.5Z"/><path class="f" d="M12.1,130.7c.2.2.4,1.6.3,1.9-1.1,0-1.6-3-.3-1.9Z"/><path class="f" d="M11.8,124.6c.2.3.3.9.3,1.3-1.8.3-1.6-3-.3-1.3Z"/><path class="f" d="M15.4,141.3c1.5,1.8-1,1.8-.7-.7.3,0,.5.4.7.7Z"/><path class="f" d="M16.1,137.5c.2.2.4,1.5.3,1.9-.8.2-1.5-3.1-.3-1.9Z"/><path class="f" d="M13.3,134.1c0,.1.3,1.6.3,1.9-1.2.1-1.3-3.1-.3-1.9Z"/><path class="f" d="M15.2,136.1c-.6.6-1.3-1.8-1.1-2,.5-.6,1.3,1.8,1.1,2Z"/><path class="f" d="M20.4,150.4l.5,2c-.8.3-1.8-2.2-.5-2Z"/><path class="f" d="M18.4,150.4l.6,2c-.8.3-1.8-2.2-.6-2Z"/><path class="f" d="M10.8,127.2l.6,2c-.8.3-1.8-2.2-.6-2Z"/><path class="f" d="M12.7,127.2c0,0,.6,1.9.6,2-.8,1.5-1.6-3.2-.6-2Z"/><path class="f" d="M13.9,130.6c0,.1.2,1.7.3,2-1.2.1-1.2-3.1-.3-2Z"/><path class="f" d="M17.5,142.6c-.7.2-1.3-1.7-.7-1.9l.7,1.9Z"/><path class="f" d="M18.1,143.9c0,0,.8,1.8.1,1.9-.6-.1-1-2.8-.1-1.9Z"/><path class="f" d="M14.4,139.4c-.4,0-.9-1.9-.8-2,.5-.6,1.3,1.4.8,2Z"/><path class="f" d="M16.4,145.9v-1.9c.4.4,1,1.6,0,1.9Z"/><path class="f" d="M9.9,124.2l.3,1.7c-.9.3-1.4-2-.3-1.7Z"/><path class="f" d="M17.5,147.4c.2.1.3,1.3.3,1.7-1,.3-1.1-2.5-.3-1.7Z"/></g></g></svg>
