<?xml version="1.0" encoding="UTF-8"?><svg id="b" xmlns="http://www.w3.org/2000/svg" viewBox="0 0 130.7 34.8"><defs><style>.d{fill:#6b6b6b;}</style></defs><g id="c"><path class="d" d="M16.2,25.8c-.5-.3-1.1-.6-1.7-.7h0c.5-.3,1-.5,1.5-.8.5-.3.9-.8,1.1-1.4.3-.7.5-1.4.4-2.2,0-.8-.2-1.6-.7-2.3-.5-.7-1.1-1.2-1.8-1.6-.8-.4-1.6-.6-2.5-.6H.3v18.3h12.4c.9,0,1.8-.2,2.7-.6.8-.4,1.4-1,1.9-1.7.5-.8.7-1.6.7-2.5,0-.8-.1-1.6-.5-2.4-.3-.6-.7-1.1-1.3-1.5ZM6.2,20.2h4c.4,0,.7.1,1,.4.3.3.4.6.4,1,0,.3,0,.6-.2.9-.1.2-.3.4-.5.6-.2.1-.5.2-.7.2h-4v-3.1ZM11.6,29.8c-.2.3-.6.5-1,.4h-4.5v-3.1h4.5c.2,0,.5,0,.7.2.2.1.4.3.5.5.1.2.2.5.2.7,0,.6-.1,1-.4,1.3h0Z"/><path class="d" d="M26.9,16.2h-5.9v18.3h5.9v-18.3Z"/><path class="d" d="M36.3,22.7c.2-.5.4-.9.8-1.3.4-.4.8-.7,1.3-.8.6-.2,1.2-.3,1.8-.3s.9,0,1.3.2c.4.1.8.3,1.1.5.3.2.6.5.8.8s.3.7.3,1.1h5.6c0-2.1-1-4.1-2.7-5.2-.9-.6-1.9-1-3-1.3-1.2-.3-2.4-.5-3.6-.4-2.1,0-3.9.3-5.4,1.1-1.4.7-2.6,1.8-3.4,3.2-.8,1.4-1.2,3.1-1.2,5.2,0,3.1.8,5.5,2.3,7.1,1.5,1.6,3.8,2.4,6.9,2.4s1.7,0,2.6-.2c.7-.1,1.5-.4,2.2-.7.7-.3,1.3-.7,1.8-1.2l.6,1.8h3v-10.2h-9.8v3.7h4.1c0,.6-.2,1-.5,1.3-.3.4-.8.7-1.3.8-.6.2-1.1.3-1.7.3-.8,0-1.6-.1-2.3-.5-.6-.3-1.1-.8-1.4-1.5-.3-.7-.5-1.5-.5-2.3v-1.7c0-.6,0-1.2.3-1.8Z"/><path class="d" d="M52.9,34.5h5.9v-6.6h7.7v-4.2h-7.7v-3.1h8.9v-4.4h-14.8v18.3Z"/><path class="d" d="M107.3,16.9c-1.5-.7-3.3-1.1-5.4-1.1s-3.9.3-5.3,1.1c-1.4.7-2.6,1.8-3.4,3.2-.8,1.4-1.2,3.1-1.2,5.2s.4,3.8,1.2,5.2c.8,1.4,1.9,2.5,3.4,3.2,1.5.7,3.2,1.1,5.3,1.1s3.9-.3,5.4-1.1c1.4-.7,2.6-1.8,3.4-3.2.8-1.4,1.2-3.2,1.2-5.2s-.4-3.8-1.2-5.2c-.8-1.4-1.9-2.5-3.4-3.2ZM105.8,26.2c0,.6,0,1.2-.2,1.7-.1.5-.4.9-.7,1.3-.3.4-.8.7-1.2.9-1.1.4-2.3.4-3.4,0-.5-.2-.9-.5-1.2-.9-.3-.4-.6-.8-.7-1.3-.2-.6-.2-1.1-.2-1.7v-1.7c0-.6,0-1.1.2-1.7.1-.5.4-.9.7-1.4.3-.4.7-.7,1.2-.9,1.1-.4,2.3-.4,3.4,0,.5.2.9.5,1.2.9.3.4.6.8.7,1.4.2.6.2,1.1.2,1.7v1.7Z"/><path class="d" d="M112.8,16.2v4.7h6v13.6h5.9v-13.6h6v-4.7h-17.9Z"/><path class="d" d="M5.5,13.7h5.3V3.5h5.5V0H0v3.5h5.5v10.1Z"/><path class="d" d="M24,8.5h6.1v5.2h5.3V0h-5.3v5h-6.1V0h-5.3v13.7h5.3v-5.2Z"/><path class="d" d="M53.5,10.4h-9.3v-2.1h7.8v-3.1h-7.8v-1.9h9.2V0h-14.4v13.7h14.6v-3.3Z"/><path class="d" d="M77.4,13.7l-3.2-5.3c.8-.4,1.5-.9,2-1.6.5-.7.8-1.5.7-2.4,0-.8-.2-1.5-.6-2.2-.5-.7-1.1-1.3-1.8-1.6-.8-.4-1.8-.6-3.1-.6h-10.6v13.7h5.3v-4.6h2.9l2.5,4.6h6ZM70.1,6.1h-4v-2.9h4c.3,0,.5,0,.8.2.2.1.4.3.5.5.1.2.2.5.2.7,0,.4-.1.8-.4,1.1-.3.3-.7.4-1,.4h0Z"/><path class="d" d="M94.3,10.4h-9.3v-2.1h7.8v-3.1h-7.8v-1.9h9.2V0h-14.4v13.7h14.6v-3.3Z"/><path class="d" d="M101.7,11.8h6l.7,1.9h5.6L107.8,0h-6.1l-6.2,13.7h5.4l.7-1.9ZM103.7,6.5c.1-.3.2-.6.3-.9.1-.3.2-.6.3-.9s.2-.6.3-.8h.2c0,.2.2.4.2.6,0,.2.2.5.2.7s.2.5.2.7c0,.2.1.4.2.6l.8,2.2h-3.6l.8-2.2h0Z"/><path class="d" d="M129.8,10.2h-8.6V0h-5.3v13.7h13.9v-3.5Z"/><path class="d" d="M81.7,34.4h0c0-.1-.3-.5-.3-.5v-.4s-.2-.4-.2-.4l-.2-.4-.3-.3h-.2l-.3-.5v-.4c.1,0-.1,0-.1,0l-.2-.4v-.5c-.1,0-.3-.2-.3-.2h0c0,0-.3.4-.3.4l-.2.4-.3.3-.3.3-.3.3-.2.4-.2.3h0c0,.1,0,.3,0,.3v.7c.1,0,.3.2.3.2v.3c0,0,.3.1.3.1h.2c0,0,0,.1,0,.1.4,0,.8,0,1.2,0,.6,0,1.2,0,1.8-.1v-.4c0,0,0,0,0,0Z"/><path class="d" d="M74.6,33.7v-.2s.1-.2.1-.2v-.2c.1,0,.3-.1.3-.1h.1c0,0-.2,0-.2,0l.4-.5v-.4c.1,0,.3-.4.3-.4l.2-.4.2-.4v-.4c0,0,.3-.4.3-.4l.2-.4.3-.3.3-.3.3-.3v-.3c.1,0,.2-.3.2-.3h-.2c0-.1-.2-.5-.2-.5l-.3-.3-.2-.3-.4-.3v-.4c-.1,0-.1-.4-.1-.4v-.5c.1,0,.3-.5.3-.5v-.5s0-.2,0-.2h0c0,0-.3.4-.3.4l-.3.3-.4.2-.4.2-.3.2h-.4c0,0-.3.2-.3.2h0s-.2,0-.2,0h-.1c0,.1-.2.1-.2.1,0,0-.1,0-.1,0h-.5s-.1,0-.1,0c0,0-.1,0-.1,0h-.1s-.1,0-.1,0h-.1s-.1,0-.1,0h-.1c0,0-.1-.1-.1-.1h-.1c0,0,0-.2,0-.2h0v-.4s0-.1,0-.1h.1c0,0,0,0,0,0h0c0,0,0-.2,0-.2h.1c0,0,.1,0,.1,0h0c0,0,0,0,0,0h.1s0,0,0,0h0c0,.1,0,.2,0,.2h.1c0,0,.1,0,.1,0h0s0-.1,0-.1h.1c0-.1.1-.2.1-.2h0c0-.1.1-.3.1-.3h.1c0,0,.1-.2.1-.2h0,0s.2-.2.2-.2l.3-.2.3-.3.3-.4.3-.4h-.3s.3-.2.3-.2l.3-.2h-.3c0,.1.3-.4.3-.4l.3-.4.4-.3.4-.3.4-.4v-.5c.1,0,.3-.4.3-.4l.2-.4.2-.4.2-.4h.4c0,0,.4-.3.4-.3h.4c0-.1.4-.2.4-.2v-.2c.1,0,.2-.2.2-.2v-.2c.1,0,.2-.2.2-.2h.2c0,0,.1-.3.1-.3h.1s0-.1,0-.1v-.2s0-.2,0-.2v-.2c.1,0,.2,0,.2,0h0s0-.2,0-.2h.2c0-.1,0-.3,0-.3v-.2c.1,0,.3-.1.3-.1h0c-.3-.1-.6-.1-.9-.1-2.1,0-3.9.3-5.3,1.1-1.4.7-2.6,1.8-3.4,3.2-.8,1.4-1.2,3.1-1.2,5.2s.4,3.8,1.2,5.2c.8,1.4,1.9,2.5,3.4,3.2,0,0,.1,0,.2.1v-.2c0,0,0,0,0,0Z"/><path class="d" d="M75.8,34.3c0,0,.1,0,.2,0h-.2c0,0,0,0,0,0Z"/><path class="d" d="M88.5,20.1c-.8-1.4-1.9-2.5-3.4-3.2-.8-.4-1.6-.6-2.4-.8h0c0,0,.2.2.2.2h.1c0,.1,0,.3,0,.3h.2c0,.1,0,.3,0,.3v.2c0,0,.2.2.2.2v.3s-.1,0-.1,0h-.1c0,0,.1,0,.1,0v.2s.2.2.2.2v.2h0c0,.1,0,.1,0,.1v.2s0,.2,0,.2v.2c-.1,0-.1.2-.1.2v.2c-.1,0-.2.2-.2.2v.2h-.2s-.1.1-.1.1h.2c0,.1,0,.1,0,.1,0,0,.1.1.1.1l.3.3.2.4.3.4v.4s.1.4.1.4l.3.4.4.4.4.3.5.3.5.4.4.2.5.2v.2h.3c0,0,.1.2.1.2h0c0,.1,0,.3,0,.3h.1c0,.1,0,.2,0,.2v.2s.1.1.1.1h0c0,.1-.1.1-.1.1h-.1c0,0,0-.2,0-.2h-.1c0,0,.1,0,.1,0h0c0,.1,0,.3,0,.3h0v.3h-.1c0,0,0,0,0,0h0c0-.1-.1-.3-.1-.3v.2h0c0,.1-.1.2-.1.2h0c0,.1-.1,0-.1,0h0c0-.1,0-.3,0-.3v-.2c0,0,0,.2,0,.2v.2h0c0,0-.1,0-.1,0h-.1v-.3s-.1-.1-.1-.1h-.2s-.1-.2-.1-.2h-.2s-.2,0-.2,0h-.1c0,0-.1-.2-.1-.2h-.2s0,.3,0,.3l-.3-.2v.2s-.3-.3-.3-.3l-.4-.2-.4-.2-.3-.3h-.5c0,0-.4-.3-.4-.3l-.3-.3-.3-.2-.2.4v.5c-.1,0-.3.5-.3.5l-.5.3.2.5.3.3.3.3v.6c.1,0,.3.4.3.4l.2.4.3.4.3.4v.5l.3.4v.5c0,0-.1.4-.1.4v.4s.1.4.1.4v.5c0,0,.2.4.2.4l.2.5.3.5.3.3v.2h.8c0,0,.2.1.2.1,1.4-.7,2.6-1.8,3.3-3.1.8-1.4,1.2-3.2,1.2-5.2s-.4-3.8-1.2-5.2h0Z"/><path class="d" d="M84,33.5h0s0,0,0,0h0Z"/></g></svg>
