<svg width="193" height="29" viewBox="0 0 193 29" fill="none" xmlns="http://www.w3.org/2000/svg">
<g clip-path="url(#clip0_441_4177)">
<path d="M102.182 0.26122C114.332 0.26122 126.482 0.26122 138.631 0.26122C138.858 0.421356 139.112 0.544539 139.312 0.729312C140.928 2.28141 142.557 3.82119 144.119 5.42255C144.479 5.80442 144.76 6.39569 144.773 6.90074C144.826 11.8157 144.8 16.743 144.8 21.658C144.8 22.2985 144.573 22.8528 144.079 23.3209C142.61 24.7498 141.168 26.1911 139.686 27.6077C139.392 27.891 138.992 28.1004 138.645 28.3344C126.495 28.3344 114.345 28.3344 102.195 28.3344C101.621 28.0388 101.354 27.583 101.368 26.9794C101.368 26.7331 101.341 26.4867 101.341 26.2403C101.341 18.2705 101.341 10.3129 101.341 2.343C101.341 2.09663 101.368 1.85027 101.368 1.60391C101.368 1.00031 101.621 0.544539 102.195 0.248901L102.182 0.26122ZM106.468 25.1194C106.628 25.1194 106.722 25.144 106.802 25.144C116.188 25.144 125.574 25.144 134.96 25.144C135.213 25.144 135.52 25.0085 135.694 24.8361C136.949 23.6658 138.177 22.4833 139.392 21.2884C139.566 21.116 139.673 20.8327 139.673 20.5863C139.686 16.3365 139.686 12.0867 139.673 7.83693C139.673 7.56592 139.499 7.24565 139.299 7.04856C138.177 5.96456 137.029 4.90519 135.854 3.87046C135.601 3.64873 135.173 3.47628 134.826 3.47628C125.6 3.45164 116.361 3.46396 107.135 3.46396C106.922 3.46396 106.708 3.47628 106.468 3.48859V25.1071V25.1194Z" fill="#B99C20"/>
<path d="M159.727 0.26122C170.675 0.26122 181.623 0.26122 192.571 0.26122V3.46396C192.277 3.46396 191.997 3.46396 191.703 3.46396C182.317 3.46396 172.931 3.46396 163.545 3.47628C163.198 3.47628 162.771 3.64873 162.517 3.87046C161.342 4.92983 160.18 6.01383 159.072 7.12247C158.832 7.35652 158.672 7.7507 158.658 8.08329C158.618 9.41366 158.645 10.744 158.645 12.0867V12.6903H192.571V15.893H158.645C158.645 17.5437 158.645 19.1204 158.658 20.6971C158.658 20.8819 158.845 21.1037 158.992 21.2638C160.14 22.4094 161.315 23.5303 162.464 24.6759C162.797 25.0085 163.118 25.1317 163.612 25.1317C173.265 25.1194 182.918 25.1317 192.571 25.1317V28.3344H159.593C159.259 28.0758 158.885 27.8417 158.592 27.5584C157.176 26.1911 155.801 24.7991 154.373 23.4441C153.799 22.8898 153.531 22.2616 153.531 21.5102C153.531 16.6691 153.531 11.828 153.531 6.99929C153.531 6.34642 153.772 5.80442 154.252 5.33633C155.775 3.87046 157.27 2.39227 158.805 0.926404C159.072 0.667721 159.419 0.470629 159.727 0.248901V0.26122Z" fill="#B99C20"/>
<path d="M36.894 28.3468C36.894 25.5013 36.8673 22.6434 36.8673 19.7979C36.8673 18.5292 36.8673 17.2604 36.8673 15.9546H5.51828V28.3468H0.444763C0.431412 28.1497 0.391357 27.9403 0.391357 27.7432C0.391357 18.7878 0.391357 9.83249 0.391357 0.877142C0.391357 0.667732 0.41806 0.458322 0.444763 0.26123H5.51828C5.51828 4.14147 5.51828 8.00939 5.53163 11.8896C5.53163 12.136 5.53163 12.37 5.53163 12.6657H36.8539V11.9512C36.8539 8.30503 36.8539 4.64652 36.8539 1.00032C36.8539 0.753959 36.8806 0.507595 36.8806 0.26123C38.5762 0.26123 40.2585 0.26123 41.9541 0.26123C41.9541 0.446004 41.9808 0.630777 41.9808 0.81555C41.9808 9.80785 41.9808 18.8002 41.9808 27.8048C41.9808 27.9895 41.9541 28.1743 41.9541 28.3591H36.8806L36.894 28.3468Z" fill="#B99C20"/>
<path d="M69.0709 28.3468V20.5247C68.7238 20.5247 68.4568 20.5247 68.2031 20.5247C64.5582 20.5247 60.9132 20.5247 57.2683 20.5247C56.4672 20.5247 55.8397 20.3276 55.279 19.7487C53.9972 18.4183 52.6754 17.1126 51.2869 15.8684C50.4458 15.117 50.1654 14.267 50.1654 13.2323C50.1921 9.1673 50.1654 5.11461 50.1654 1.0496C50.1654 0.790914 50.1253 0.519913 50.0986 0.26123C51.8343 0.26123 53.57 0.26123 55.3057 0.26123C55.3057 4.38783 55.3057 8.50212 55.3324 12.6287C55.3324 12.949 55.5193 13.3432 55.7463 13.5895C56.9078 14.7475 58.1095 15.8684 59.3378 16.9771C59.538 17
.1495 59.8718 17.2973 60.1389 17.2973C67.7892 17.3096 75.4395 17.3096 83.0899 17.2973C83.3435 17.2973 83.6506 17.1741 83.8375 17.014C85.1059 15.8684 86.3609 14.6982 87.5893 13.5156C87.7762 13.3432 87.8696 13.0229 87.8696 12.7642C87.883 8.60067 87.883 4.43711 87.883 0.273549H93.09C93.09 4.70811 93.09 9.13035 93.09 13.5649C93.09 14.4149 92.823 15.1047 92.1688 15.7206C90.7001 17.0879 89.2582 18.4922 87.8563 19.9088C87.389 20.3769 86.8816 20.5493 86.2141 20.5493C82.5024 20.5493 78.7907 20.5493 75.079 20.5493C74.812 20.5493 74.545 20.5493 74.1311 20.5493V28.3714H69.0576L69.0709 28.3468Z" fill="#B99C20"/>
</g>
<defs>
<clipPath id="clip0_441_4177">
<rect width="192.179" height="28.0855" fill="white" transform="translate(0.391357 0.26123)"/>
</clipPath>
</defs>
</svg>
