<svg width="84" height="95" viewBox="0 0 84 95" fill="none" xmlns="http://www.w3.org/2000/svg">
<g clip-path="url(#clip0_306_11738)">
<path d="M79.2407 1.05457C81.255 7.47685 79.5423 14.353 74.8961 19.1443L74.8938 19.1467C71.3403 22.8423 66.0408 24.7875 60.9167 24.108C61.9747 21.1936 63.4192 18.4502 65.3568 16.0974L64.407 14.8869C57.8899 18.0248 54.3424 21.7553 52.0349 25.7373C50.889 27.7148 50.0584 29.7378 49.3212 31.7409C49.0453 32.4906 48.7854 33.2287 48.5277 33.9603C48.088 35.2089 47.6549 36.4386 47.1604 37.675L47.0871 37.8583L47.1089 38.0545C47.1629 38.5409 47.2367 39.0394 47.308 39.5205C47.3424 39.7531 47.3762 39.9816 47.4069 40.2027C47.5039 40.901 47.5767 41.5673 47.5767 42.2212V42.9884L48.3437 43.0086C53.8388 43.1532 59.0527 45.0765 63.2142 48.5137L60.1566 51.0617L52.5064 57.0936C50.3745 55.1951 47.5709 54.0368 44.7409 54.0368H27.4359C31.4578 48.1442 37.6708 44.3195 44.6948 43.3161L45.4506 43.2081L45.3663 42.4493C44.885 38.1176 43.7623 33.949 42.1597 30.1026L41.9139 29.5128L41.2861 29.6316C35.7242 30.6838 30.1664 28.8842 26.2532 24.8256C21.7652 19.8974 20.3311 12.8774 22.3636 6.57254C25.3648 7.78013 28.6706 8.18015 31.6744 8.5219C31.7535 8.53089 31.8323 8.53985 31.9109 8.54878C35.1464 8.9164 37.9381 9.2336 39.9294 10.2893C44.4466 13.2269 46.8226 18.4145 46.2133 23.6282C42.6308 19.8778 37.6374 17.6424 32.5003 17.331L32.2088 18.8663C38.742 20.9934 43.9182 26.1639 46.2028 32.713L46.8448 34.5536L47.6617 32.7837C49.5208 28.7557 51.8476 25.0282 54.495 21.444L55.4217 20.3629L55.6806 20.0608L55.5911 19.6731C54.248 13.853 56.6322 7.90364 61.6811 4.77597C62.6358 4.24894 63.8263 3.89679 65.2185 3.63171C66.5371 3.38066 67.9863 3.21614 69.5338 3.04045C69.6289 3.02966 69.7243 3.01883 69.82 3.00794C72.83 2.66549 76.1721 2.26471 79.2407 1.05457Z" stroke="#B99C20" stroke-width="1.57542"/>
<path d="M80.7169 53.527L80.6408 53.5745L80.5773 53.638L50.6444 83.5709C49.5107 84.7046 48.0911 85.4217 46.3531 85.7128L24.9381 88.8621C24.9376 88.8621 24.9371 88.8622 24.9365 88.8623C21.6876 89.3268 18.7586 91.0642 16.5183 93.3877L1.12119 77.9906L13.6265 65.7866L13.6265 65.7867L13.6333 65.7799C16.9676 62.4456 21.1909 60.4907 25.8576 60.3388C29.9428 60.2604 34.6985 60.2603 38.4364 60.28C40.3055 60.2898 41.9188 60.3046 43.0648 60.3169C43.6378 60.323 44.0939 60.3286 44.4066 60.3326L44.7649 60.3373L44.8572 60.3386L44.8806 60.3389L44.8864 60.339L44.8879 60.339L44.8882 60.339C44.8883 60.339 44.8883 60.339 44.8975 59.7068L44.8883 60.3391H44.8997C47.6541 60.3391 49.5665 62.2623 50.0411 64.2626C50.2764 65.2539 50.1466 66.2122 49.65 66.9571C49.1604 67.6914 48.2422 68.326 46.6838 68.5385L46.6706 68.5403L46.6575 68.5425L28.2251 71.6934L28.1828 71.7006L28.1415 71.7124C26.6479 72.1391 25.765 73.6411 26.1684 75.1553C26.4291 76.7581 27.9945 77.5111 29.3031 77.5111H29.37L29.4358 77.4999L47.8682 74.349L47.8791 74.3472L47.89 74.345C50.4508 73.8328 52.8342 72.3004 54.3697 70.0824L54.3818 70.065L54.3929 70.0469C55.651 68.0025 56.3486 65.3328 55.8615 62.8521L74.6927 47.8797L74.7792 47.8109L74.8435 47.721C75.5273 46.7636 76.7297 46.0028 77.826 46.0028H77.8696L77.913 45.998C79.0908 45.8671 80.2723 46.2548 81.2075 47.19C81.9587 47.9411 82.3947 49.2863 82.3947 50.5715C82.3947 51.7103 81.7533 52.8792 80.7169 53.527Z" stroke="#B99C20" stroke-width="1.57542"/>
</g>
<defs>
<clipPath id="clip0_306_11738">
<rect width="83.182" height="94.525" fill="white"/>
</clipPath>
</defs>
</svg>
