<?xml version="1.0" encoding="UTF-8"?><svg id="b" xmlns="http://www.w3.org/2000/svg" xmlns:xlink="http://www.w3.org/1999/xlink" viewBox="0 0 206 47.4"><defs><style>.f{mask:url(#d);}.g{fill:#fff;}.h{fill:#6b6b6b;}</style><mask id="d" x="52.6" y="9.2" width="154" height="27" maskUnits="userSpaceOnUse"><g id="e"><rect class="g" x="52.6" y="9.2" width="154" height="27"/><path d="M63,35.2V14.1h-9.6v-3.8h23.5v3.8h-9.6v21.1h-4.3ZM87.8,35.2V10.4h17.5l4.6,4.6v7l-4.4,4.4,5.3,7.4v1.4h-4.2l-6-8.5h-8.5v8.5h-4.3ZM92.1,23h11.1l2.5-2.5v-4l-2.5-2.5h-11.1v9ZM121.6,35.2v-3.5h5V13.8h-5v-3.4h14.2v3.4h-5v17.9h5v3.5h-14.2ZM148.4,35.2V10.4h18l3.9,3.9v5.1l-2.3,2.3,3.6,3.6v5.7l-4.3,4.3h-18.9ZM152.7,20.5h11.5l1.9-1.9v-2.8l-1.8-1.8h-11.6v6.5ZM152.7,31.6h12.5l2.1-2.2v-3.1l-2.1-2.1h-12.6v7.4ZM184.3,35.2V10.4h21v3.8h-16.8v6.7h12.9v3.7h-12.9v6.9h17.1v3.8h-21.4Z"/></g></mask></defs><g id="c"><path class="h" d="M38.8,24.7l-3.2,7.1.7.3v2.6c0,0,.5,1.2.5,1.2l2-1-.3-.7.3-9.6Z"/><path class="h" d="M27.8,15.7v.2c.1,0,5.2,3.1,5.2,3.1l-1.8-5.1h-1.8c-.6-.7-1.4-1.6-2.7-2.3-.9-.5-1.9-.8-2.9-.9h-1.7l.9,2.2h.7c.7,0,1.4.3,2,.6,1.1.6,1.8,1.4,2.1,2h0Z"/><path class="h" d="M1.8,24.7l.3,9.6-.3.7,2,1,.5-1.2v-2.6c0,0,.7-.3.7-.3l-3.2-7.1Z"/><path class="h" d="M17.6,13.1l.9-2.2h-1.8c-1,0-2,.4-2.9.8-1.3.7-2.1,1.6-2.7,2.3h-1.8s-1.8,5-1.8,5l5.1-3.1v-.2c.5-.6,1.2-1.4,2.3-2,.6-.3,1.3-.5,2-.6h.7,0Z"/><path class="h" d="M5.2,23.3l.5-3.7c1.4-7,5-11.7,10.9-14.2l1-.4,1.3-1.3h0c0,0,.9,1,.9,1,0,0,.2.2.5.2s.4-.1.5-.2l.4-.4.6-.6,1.3,1.3.9.4c5.9,2.6,9.5,7.2,11,14.2l.5,3.7.5,3.9,4.7-10.3-3.6,1.3c-1.7-7.6-5.7-12.9-12.1-15.9l-3.6-1.4-.9-.9-.9.9-3.7,1.5c-6.3,2.9-10.4,8.2-12.1,15.8l-3.6-1.3,4.7,10.3,.5-3.9Z"/><path class="h" d="M18.9,5.6v4.3l1.4-3.4,1.4,3.4v-4.3h0c-.2.1-.7.4-1.4.4-.7,0-1.2-.3-1.4-.4Z"/><path class="h" d="M17.9,32.3v-3.1h-2.2v1.6l-1.9.8.9,2.1,3.3-1.4Z"/><path class="h" d="M10,26.5l-.2,2.2,2,.2,1.6,1.7,1.6-1.6-2.2-2.3-2.8-.2Z"/><path class="h" d="M33.5,20.5l-6.7,3.5,4.8.8.6,6.3.9,5-5.9-.7-5.7-2.2v-11.4c.6.1,1.4.3,2.1.8l1.1-2c-.8-.5-1.6-.7-2.4-.9l1.2-1.6-3.2-7.9-3.2,7.9,1.2,1.6c-1,.2-1.8.6-2.4.9l1.1,2c.5-.3,1.3-.6,2.2-.8v11.4l-5.8,2.2-5.9.7.9-4.9.6-6.4,4.8-.8-6.7-3.5-.9,10.3-1.1,6,1.5.3.2,1.4,10.9-1.3.9,3.1c-1.2.6-2.1,1.9-2.1,3.4,0,2.1,1.7,3.8,3.8,3.8s3.8-1.7,3.8-3.8-.8-2.7-2-3.4l.9-3.1,10.9,1.3.2-1.4,1.5-.3-1.1-6-.9-10.3h0ZM20.3,35.7h0ZM20.3,45.2c-.9,0-1.6-.7-1.6-1.6s.7-1.6,1.6-1.6,1.6.7,1.6,1.6-.7,1.6-1.6,1.6Z"/><path class="h" d="M25,29.2h-2.2v3.1l3.3,1.4.9-2.1-1.9-.8v-1.6Z"/><path class="h" d="M28.8,28.9l2-.2-.2-2.2-2.8.2-2.2,2.3,1.6,1.6,1.6-1.7Z"/><path class="h" d="M63,35.2V14.1h-9.6v-3.8h23.5v3.8h-9.6v21.1h-4.3ZM87.8,35.2V10.4h17.5l4.6,4.6v7l-4.4,4.4,5.3,7.4v1.4h-4.2l-6-8.5h-8.5v8.5h-4.3ZM92.1,23h11.1l2.5-2.5v-4l-2.5-2.5h-11.1v9ZM121.6,35.2v-3.5h5V13.8h-5v-3.4h14.2v3.4h-5v17.9h5v3.5h-14.2ZM148.4,35.2V10.4h18l3.9,3.9v5.1l-2.3,2.3,3.6,3.6v5.7l-4.3,4.3h-18.9ZM152.7,20.5h11.5l1.9-1.9v-2.8l-1.8-1.8h-11.6v6.5ZM152.7,31.6h12.5l2.1-2.2v-3.1l-2.1-2.1h-12.6v7.4ZM184.3,35.2V10.4h21v3.8h-16.8v6.7h12.9v3.7h-12.9v6.9h17.1v3.8h-21.4Z"/><g class="f"><path class="h" d="M63,35.2h-.3v.3h.3v-.3ZM63,14.1h.3v-.3h-.3v.3ZM53.4,14.1h-.3v.3h.3v-.3ZM53.4,10.4v-.3h-.3v.3h.3ZM76.9,10.4h.3v-.3h-.3v.3ZM76.9,14.1v.3h.3v-.3h-.3ZM67.3,14.1v-.3h-.3v.3h.3ZM67.3,35.2v.3h.3v-.3h-.3ZM63.3,35.2V14.1h-.6v21.1h.6ZM63,13.8h-9.6v.6h9.6v-.6ZM53.7,14.1v-3.8h-.6v3.8h.6ZM53.4,10.6h23.5v-.6h-23.5v.6ZM76.6,10.4v3.8h.6v-3.8h-.6ZM76.9,13.8h-9.6v.6h9.6v-.6ZM67,14.1v21.1h.6V14.1h-.6ZM67.3,34.9h-4.3v.6h4.3v-.6ZM87.8,35.2h-.3v.3h.3v-.3ZM87.8,10.4v-.3h-.3v.3h.3ZM105.3,10.4l.2-.2h0c0,0-.1,0-.1,0v.3ZM109.9,15h.3c0-.1,0-.2,0-.2l-.2.2ZM109.9,22l.2.2h0v-.2h-.3ZM105.5,26.4l-.2-.2-.2.2v.2c.1,0,.4-.2.4-.2ZM110.8,33.8h.3c0,0,0-.2,0-.2l-.2.2ZM110.8,35.2v.3h.3v-.3h-.3ZM106.6,35.2l-.2.2h0c0,.1.1.1.1.1v-.3ZM100.6,26.7l.2-.2h0c0-.1-.1-.1-.1-.1v.3ZM92.1,26.7v-.3h-.3v.3h.3ZM92.1,35.2v.3h.3v-.3h-.3ZM92.1,23h-.3v.3h.3v
-.3ZM103.2,23v.3h.2c0,0-.2-.3-.2-.3ZM105.7,20.5l.2.2h0v-.2h-.3ZM105.7,16.5h.3c0-.1,0-.2,0-.2l-.2.2ZM103.2,14l.2-.2h0c0,0-.1,0-.1,0v.3ZM92.1,14v-.3h-.3v.3h.3ZM88.1,35.2V10.4h-.6v24.9h.6ZM87.8,10.6h17.5v-.6h-17.5v.6ZM105.1,10.5l4.6,4.6.4-.4-4.6-4.6-.4.4ZM109.7,15v7h.6v-7h-.6ZM109.7,21.8l-4.4,4.4.4.4,4.4-4.4-.4-.4ZM105.3,26.6l5.3,7.4.5-.3-5.3-7.4-.5.3ZM110.5,33.8v1.4h.6v-1.4h-.6ZM110.8,34.9h-4.2v.6h4.2v-.6ZM106.8,35l-6-8.5-.5.3,6,8.5.5-.3ZM100.6,26.4h-8.5v.6h8.5v-.6ZM91.8,26.7v8.5h.6v-8.5h-.6ZM92.1,34.9h-4.3v.6h4.3v-.6ZM92.1,23.3h11.1v-.6h-11.1v.6ZM103.4,23.2l2.5-2.5-.4-.4-2.5,2.5.4.4ZM106,20.5v-4h-.6v4h.6ZM105.9,16.3l-2.5-2.5-.4.4,2.5,2.5.4-.4ZM103.2,13.7h-11.1v.6h11.1v-.6ZM91.8,14v9h.6v-9h-.6ZM121.6,35.2h-.3v.3h.3v-.3ZM121.6,31.7v-.3h-.3v.3h.3ZM126.6,31.7v.3h.3v-.3h-.3ZM126.6,13.8h.3v-.3h-.3v.3ZM121.6,13.8h-.3v.3h.3v-.3ZM121.6,10.4v-.3h-.3v.3h.3ZM135.8,10.4h.3v-.3h-.3v.3ZM135.8,13.8v.3h.3v-.3h-.3ZM130.9,13.8v-.3h-.3v.3h.3ZM130.9,31.7h-.3v.3h.3v-.3ZM135.8,31.7h.3v-.3h-.3v.3ZM135.8,35.2v.3h.3v-.3h-.3ZM121.9,35.2v-3.5h-.6v3.5h.6ZM121.6,32h5v-.6h-5v.6ZM126.9,31.7V13.8h-.6v17.9h.6ZM126.6,13.5h-5v.6h5v-.6ZM121.9,13.8v-3.4h-.6v3.4h.6ZM121.6,10.6h14.2v-.6h-14.2v.6ZM135.6,10.4v3.4h.6v-3.4h-.6ZM135.8,13.5h-5v.6h5v-.6ZM130.6,13.8v17.9h.6V13.8h-.6ZM130.9,32h5v-.6h-5v.6ZM135.6,31.7v3.5h.6v-3.5h-.6ZM135.8,34.9h-14.2v.6h14.2v-.6ZM148.4,35.2h-.3v.3h.3v-.3ZM148.4,10.4v-.3h-.3v.3h.3ZM166.4,10.4l.2-.2h0c0,0-.1,0-.1,0v.3ZM170.3,14.3h.3c0-.1,0-.2,0-.2l-.2.2ZM170.3,19.4l.2.2h0v-.2h-.3ZM168,21.7l-.2-.2-.2.2.2.2.2-.2ZM171.6,25.2h.3c0-.1,0-.2,0-.2l-.2.2ZM171.6,30.9l.2.2h0v-.2h-.3ZM167.3,35.2v.3h.2c0,0-.2-.3-.2-.3ZM152.7,20.5h-.3v.3h.3v-.3ZM164.2,20.5v.3h.2c0,0-.2-.3-.2-.3ZM166.1,18.6l.2.2h0v-.2h-.3ZM166.1,15.8h.3c0-.1,0-.2,0-.2l-.2.2ZM164.3,14l.2-.2h0c0,0-.1,0-.1,0v.3ZM152.7,14v-.3h-.3v.3h.3ZM152.7,31.6h-.3v.3h.3v-.3ZM165.2,31.6v.3h.2c0,0-.2-.3-.2-.3ZM167.3,29.4l.2.2h0v-.2h-.3ZM167.3,26.3h.3c0-.1,0-.2,0-.2l-.2.2ZM165.2,24.2l.2-.2h0c0,0-.1,0-.1,0v.3ZM152.7,24.2v-.3h-.3v.3h.3ZM148.7,35.2V10.4h-.6v24.9h.6ZM148.4,10.6h18v-.6h-18v.6ZM166.2,10.5l3.9,3.9.4-.4-3.9-3.9-.4.4ZM170.1,14.3v5.1h.6v-5.1h-.6ZM170.1,19.2l-2.3,2.3.4.4,2.3-2.3-.4-.4ZM167.8,21.9l3.6,3.6.4-.4-3.6-3.6-.4.4ZM171.3,25.2v5.7h.6v-5.7h-.6ZM171.4,30.8l-4.3,4.3.4.4,4.3-4.3-.4-.4ZM167.3,34.9h-18.9v.6h18.9v-.6ZM152.7,20.8h11.5v-.6h-11.5v.6ZM164.4,20.7l1.9-1.9-.4-.4-1.9,1.9.4.4ZM166.4,18.6v-2.8h-.6v2.8h.6ZM166.3,15.6l-1.8-1.8-.4.4,1.8,1.8.4-.4ZM164.3,13.7h-11.6v.6h11.6v-.6ZM152.4,14v6.5h.6v-6.5h-.6ZM152.7,31.8h12.5v-.6h-12.5v.6ZM165.4,31.8l2.1-2.2-.4-.4-2.1,2.2.4.4ZM167.6,29.4v-3.1h-.6v3.1h.6ZM167.5,26.1l-2.1-2.1-.4.4,2.1,2.1.4-.4ZM165.2,23.9h-12.6v.6h12.6v-.6ZM152.4,24.2v7.4h.6v-7.4h-.6ZM184.3,35.2h-.3v.3h.3v-.3ZM184.3,10.4v-.3h-.3v.3h.3ZM205.3,10.4h.3v-.3h-.3v.3ZM205.3,14.1v.3h.3v-.3h-.3ZM188.6,14.1v-.3h-.3v.3h.3ZM188.6,20.9h-.3v.3h.3v-.3ZM201.4,20.9h.3v-.3h-.3v.3ZM201.4,24.5v.3h.3v-.3h-.3ZM188.6,24.5v-.3h-.3v.3h.3ZM188.6,31.4h-.3v.3h.3v-.3ZM205.7,31.4h.3v-.3h-.3v.3ZM205.7,35.2v.3h.3v-.3h-.3ZM184.6,35.2V10.4h-.6v24.9h.6ZM184.3,10.6h21v-.6h-21v.6ZM205.1,10.4v3.8h.6v-3.8h-.6ZM205.3,13.8h-16.8v.6h16.8v-.6ZM188.3,14.1v6.7h.6v-6.7h-.6ZM188.6,21.1h12.9v-.6h-12.9v.6ZM201.2,20.9v3.7h.6v-3.7h-.6ZM201.4,24.2h-12.9v.6h12.9v-.6ZM188.3,24.5v6.9h.6v-6.9h-.6ZM188.6,31.7h17.1v-.6h-17.1v.6ZM205.4,31.4v3.8h.6v-3.8h-.6ZM205.7,34.9h-21.4v.6h21.4v-.6Z"/></g></g></svg>
